<svg id="Laag_1" data-name="Laag 1" xmlns="http://www.w3.org/2000/svg" viewBox="0 0 466.41 263.35"><defs><style>.cls-1{fill:#c30249;}.cls-2{fill:#00b5dd;}.cls-3{fill:#a2b91c;}.cls-4{fill:#a7ba19;}</style></defs><title>Logo_SVG</title><path class="cls-1" d="M466.18,295.39a6.34,6.34,0,0,0,1.24-4.43c-.15-1.73-.29-3.46-.45-5.19-.12-1.18-.25-2.37-.39-3.55-.23-2.06-.49-4.11-.71-6.16-.15-1.33-.25-2.66-.4-4-.23-1.94-.54-3.87-.7-5.82a10,10,0,0,0-1.23-4.28,4.29,4.29,0,0,0-6.21-1.48,5.34,5.34,0,0,0-2.13,4.76c0,2.09.34,4.19.54,6.28.11,1.16.24,2.31.37,3.47.24,2.08.49,4.16.72,6.25.15,1.33.26,2.66.41,4,.22,1.94.5,3.88.7,5.82a8.57,8.57,0,0,0,1.3,3.9A4.34,4.34,0,0,0,466.18,295.39Z" transform="translate(-187.74 -165.28)"/><path class="cls-1" d="M468.13,301.79a4.83,4.83,0,0,0-6.81-1,5.82,5.82,0,0,0-2.23,4.83,6.51,6.51,0,0,0,2.56,5.57,4.61,4.61,0,0,0,6.17-.41C470.23,308.47,470.18,304.36,468.13,301.79Z" transform="translate(-187.74 -165.28)"/><path class="cls-1" d="M457.78,301.53a31.4,31.4,0,0,0-1.63-8.3,24.79,24.79,0,0,0-7.56-11.88A18.89,18.89,0,0,0,436.8,277a21.35,21.35,0,0,0-7.12,1,18.3,18.3,0,0,0-9.58,6.87,21.88,21.88,0,0,0-3.33,6.82c-1.52-2.21-3.71-2.11-5.87-1.93-2,.16-3.93.48-5.9.71-1.72.2-3.45.34-5.16.57a4.69,4.69,0,0,0-3,1.61c-1.32,1.51-1.33,3.33-1.06,5.1a7.46,7.46,0,0,0,1.36,3.14c1.44,2,3.63,1.72,5.72,1.53,1.55-.14,3.09-.35,4.78-.55,0,.75,0,1.32,0,1.89a13.87,13.87,0,0,1-.33,1.91A9.59,9.59,0,0,1,394.66,313c-3.25-1.06-5.28-3.55-6.76-6.48a25.42,25.42,0,0,1-2.59-9.77,21.91,21.91,0,0,1,1.28-9.72,12.75,12.75,0,0,1,3.05-4.77,10.19,10.19,0,0,1,5.56-2.67,10.88,10.88,0,0,1,6.87,1.25c1.48.79,2.87,1.73,4.36,2.48a4.55,4.55,0,0,0,6.66-3.49,9,9,0,0,0-4.21-8.68c-3.45-2.41-7.41-3.17-11.5-3.32a28.26,28.26,0,0,0-4.67.36,19.2,19.2,0,0,0-11.09,5.45,23.86,23.86,0,0,0-5.42,8.07,30.9,30.9,0,0,0-2.4,10.95A51.84,51.84,0,0,0,374,299a34.15,34.15,0,0,0,.8,5.11,32.19,32.19,0,0,0,5.66,12.49,22.27,22.27,0,0,0,7.16,6.22,20.9,20.9,0,0,0,14.06,2,18.39,18.39,0,0,0,12.43-8.16c1-1.52,1.81-3.18,2.68-4.73.35,1,.73,2.08,1.13,3.16a23.47,23.47,0,0,0,7.42,10.61,18.19,18.19,0,0,0,11.15,4,26.69,26.69,0,0,0,5.41-.54,18,18,0,0,0,12.17-8.28A26.07,26.07,0,0,0,458,307.88C458.09,305.77,457.88,303.65,457.78,301.53ZM445.86,313a9.21,9.21,0,0,1-8.11,5.63c-3.9.1-6.56-1.78-8.52-4.91a20.62,20.62,0,0,1-2.85-8.69,29.94,29.94,0,0,1-.36-4.42c.12-3.33.61-6.6,2.66-9.4a8.62,8.62,0,0,1,6.67-3.72c4.36-.3,7.21,2,9.21,5.52a20.7,20.7,0,0,1,2.57,8.63c.08,1.08.18,2.15.27,3.23A19.39,19.39,0,0,1,445.86,313Z" transform="translate(-187.74 -165.28)"/><path class="cls-2" d="M189.17,386.4l-1.34-27.52c-.06-1-.09-1.65-.09-2a5.11,5.11,0,0,1,1.55-3.81,10.1,10.1,0,0,1,3.64-2.31,18.67,18.67,0,0,1,4.21-1,28.73,28.73,0,0,1,3.81-.28,22.28,22.28,0,0,1,10.66,2.43,16.4,16.4,0,0,1,6.93,6.87,21.87,21.87,0,0,1,2.38,10.49,27.37,27.37,0,0,1-2.45,11.29,28.92,28.92,0,0,1-4.27,6.94,23.19,23.19,0,0,1-6.38,5.38,16,16,0,0,1-8.21,2.15,21.46,21.46,0,0,1-3.35-.29,9.83,9.83,0,0,1-3.32-1.08,8.85,8.85,0,0,1-1.28-.85A8.55,8.55,0,0,1,189.17,386.4Zm10.32-1.29a7,7,0,0,0,4.09-1.33A12.89,12.89,0,0,0,207,380a21.69,21.69,0,0,0,2.41-5.63,23.3,23.3,0,0,0,.86-6.17,21.56,21.56,0,0,0-.44-4.44,9.14,9.14,0,0,0-1.42-3.47,6.39,6.39,0,0,0-2.7-2.15,12.33,12.33,0,0,0-4.8-.76,3.51,3.51,0,0,0-1.11.09c-.1.06-.16.33-.2.82l-1.06,23.27c0,.22,0,.45,0,.71,0,.62-.06,1.23-.06,1.84a1,1,0,0,0,.26.77A1,1,0,0,0,199.49,385.11Z" transform="translate(-187.74 -165.28)"/><path class="cls-2" d="M248.12,350.78l1.41,0a9.47,9.47,0,0,1,3.12.53,5.08,5.08,0,0,1,2.43,1.68,4.22,4.22,0,0,1,.91,2.71,4.68,4.68,0,0,1-1.46,3.62,6.39,6.39,0,0,1-4.45,1.35,14.76,14.76,0,0,1-1.93-.15l-6.69-.76L241.05,372l2.1-.46a16.54,16.54,0,0,1,2.46-.21,5.46,5.46,0,0,1,3.61,1.26,3.73,3.73,0,0,1,1.5,2.92,4.47,4.47,0,0,1-1.38,3q-1.4,1.5-4.58,1.62l-4,0-.08,6.61,6.17-1.17a15.37,15.37,0,0,1,2.86-.26,4.44,4.44,0,0,1,3.55,1.36,4.51,4.51,0,0,1,1.19,3.05,4.68,4.68,0,0,1-1.74,3.82,7.21,7.21,0,0,1-4.67,1.41l-9.67-.46c-2.46,0-4.18-.52-5.18-1.55s-1.56-2.82-1.69-5.35l-1.73-28.19q-.15-1.78-.15-2.28a4.5,4.5,0,0,1,.88-2.75,5.35,5.35,0,0,1,2.37-1.75,10.64,10.64,0,0,1,3.13-.71Z" transform="translate(-187.74 -165.28)"/><path class="cls-2" d="M311.41,364.23l2.69,13.95,3-21.67a14.73,14.73,0,0,1,.75-2.48,8.09,8.09,0,0,1,1.72-2.57,4.58,4.58,0,0,1,3.5-1.29c1.85,0,3.08.51,3.69,1.54a5.93,5.93,0,0,1,.93,3.11,14.2,14.2,0,0,1-.31,2.53c-.19.87-.38,1.63-.57,2.29l-7.34,28.1a9.17,9.17,0,0,1-1.32,3.12,5.14,5.14,0,0,1-2.09,1.77,6,6,0,0,1-2.47.55,7.07,7.07,0,0,1-2.2-.38,4.14,4.14,0,0,1-2-1.4,8.16,8.16,0,0,1-1.31-2.55l-3-10-3.18,10.73a11.57,11.57,0,0,1-1.36,3.05,5,5,0,0,1-2,1.76,5.81,5.81,0,0,1-2.5.57,6.58,6.58,0,0,1-2.19-.39,4.69,4.69,0,0,1-2-1.4,6.66,6.66,0,0,1-1.32-2.62l-7.39-32.63a15.45,15.45,0,0,1-.33-3c0-3.72,1.89-5.6,5.59-5.64q6.31.09,7.28,6.76L297.32,379l3.45-15q1.69-5.79,5.2-5.79Q310,358.24,311.41,364.23Z" transform="translate(-187.74 -165.28)"/><path class="cls-2" d="M355,350.78l1.4,0a9.48,9.48,0,0,1,3.13.53A5.13,5.13,0,0,1,362,353a4.28,4.28,0,0,1,.91,2.71,4.65,4.65,0,0,1-1.47,3.62,6.34,6.34,0,0,1-4.44,1.35,14.63,14.63,0,0,1-1.93-.15l-6.7-.76L348,372l2.11-.46a16.44,16.44,0,0,1,2.46-.21,5.46,5.46,0,0,1,3.61,1.26,3.73,3.73,0,0,1,1.5,2.92,4.45,4.45,0,0,1-1.39,3c-.92,1-2.45,1.54-4.57,1.62l-4,0-.09,6.61,6.17-1.17a15.48,15.48,0,0,1,2.87-.26,4.44,4.44,0,0,1,3.55,1.36,4.51,4.51,0,0,1,1.19,3.05,4.68,4.68,0,0,1-1.74,3.82,7.21,7.21,0,0,1-4.67,1.41l-9.68-.46c-2.45,0-4.18-.52-5.17-1.55s-1.56-2.82-1.7-5.35l-1.72-28.19q-.15-1.78-.15-2.28a4.43,4.43,0,0,1,.88-2.75,5.24,5.24,0,0,1,2.37-1.75,10.57,10.57,0,0,1,3.13-.71Z" transform="translate(-187.74 -165.28)"/><path class="cls-2" d="M381.48,382.54l-.41,8.1a4.82,4.82,0,0,1-1.1,2.67,4.07,4.07,0,0,1-3.34,1.54,3.8,3.8,0,0,1-3.43-1.47,5.05,5.05,0,0,1-1-2.74l-.7-30.88c-.06-1.56-.09-2.6-.09-3.13a4.76,4.76,0,0,1,1.48-3.51,10.62,10.62,0,0,1,3.48-2.28,20.07,20.07,0,0,1,4-1.17,20.77,20.77,0,0,1,3.51-.35,18.61,18.61,0,0,1,7.52,1.42,10.62,10.62,0,0,1,5,4.14,12.06,12.06,0,0,1,1.7,6.52,16.7,16.7,0,0,1-1.39,6.77,18,18,0,0,1-3.92,5.6,15.94,15.94,0,0,1-4,3.1l5.73,7.66a12.76,12.76,0,0,1,1.24,1.94,5.28,5.28,0,0,1,.6,2.53,3.64,3.64,0,0,1-1.47,3,6,6,0,0,1-3.79,1.15,6.34,6.34,0,0,1-4.14-1.26,8,8,0,0,1-2.26-2.8Zm1.9-25.7-1,13.48c.61-.39,1.2-.81,1.79-1.26a13,13,0,0,0,3.1-3.39,8.26,8.26,0,0,0,1.23-4.48,4.89,4.89,0,0,0-1-3.35,3.3,3.3,0,0,0-2.57-1.09A10.29,10.29,0,0,0,383.38,356.84Z" transform="translate(-187.74 -165.28)"/><path class="cls-2" d="M426,350.78l1.4,0a9.53,9.53,0,0,1,3.13.53,5.18,5.18,0,0,1,2.43,1.68,4.27,4.27,0,0,1,.9,2.71,4.68,4.68,0,0,1-1.46,3.62,6.36,6.36,0,0,1-4.44,1.35,14.63,14.63,0,0,1-1.93-.15l-6.7-.76L418.88,372l2.11-.46a16.31,16.31,0,0,1,2.45-.21,5.42,5.42,0,0,1,3.61,1.26,3.71,3.71,0,0,1,1.51,2.92,4.45,4.45,0,0,1-1.39,3q-1.38,1.5-4.58,1.62l-4,0-.09,6.61,6.17-1.17a15.48,15.48,0,0,1,2.87-.26,4.44,4.44,0,0,1,3.55,1.36,4.5,4.5,0,0,1,1.18,3.05,4.68,4.68,0,0,1-1.74,3.82,7.18,7.18,0,0,1-4.66,1.41l-9.68-.46c-2.45,0-4.18-.52-5.17-1.55s-1.56-2.82-1.7-5.35l-1.72-28.19q-.15-1.78-.15-2.28a4.43,4.43,0,0,1,.88-2.75,5.26,5.26,0,0,1,2.36-1.75,10.72,10.72,0,0,1,3.13-.71Z" transform="translate(-187.74 -165.28)"/><path class="cls-2" d="M458.71,384.55a4.24,4.24,0,0,1,4.74,4.13,3.9,3.9,0,0,1-1.46,3.21,7.75,7.75,0,0,1-2.81,1.44L452,394.47a32.5,32.5,0,0,1-3.6.46,4.09,4.09,0,0,1-3.71-1.69,9.37,9.37,0,0,1-1.49-5l-1.38-28c-.14-2.26-.2-3.71-.2-4.33a10.78,10.78,0,0,1,.36-2.79,5.39,5.39,0,0,1,1.65-2.53,5.31,5.31,0,0,1,3.69-1.17,6.49,6.49,0,0,1,3.77,1,5.07,5.07,0,0,1,1.93,2.28,7.38,7.38,0,0,1,.5,2.66q0,1.5-.27,6.49l-.93,24.51,3.51-1.17A8.08,8.08,0,0,1,458.71,384.55Z" transform="translate(-187.74 -165.28)"/><path class="cls-2" d="M471.47,386.4l-1.35-27.52c-.06-1-.09-1.65-.09-2a5.15,5.15,0,0,1,1.55-3.81,10.28,10.28,0,0,1,3.64-2.31,18.94,18.94,0,0,1,4.21-1,29,29,0,0,1,3.82-.28,22.3,22.3,0,0,1,10.66,2.43,16.4,16.4,0,0,1,6.93,6.87,22,22,0,0,1,2.38,10.49,27.22,27.22,0,0,1-2.46,11.29,28.6,28.6,0,0,1-4.27,6.94,23,23,0,0,1-6.37,5.38A16,16,0,0,1,481.9,395a21.34,21.34,0,0,1-3.34-.29,9.75,9.75,0,0,1-3.32-1.08,7,7,0,0,1-3.77-7.22Zm10.32-1.29a7,7,0,0,0,4.09-1.33,12.73,12.73,0,0,0,3.45-3.83,21.35,21.35,0,0,0,2.41-5.63,22.91,22.91,0,0,0,.87-6.17,21.56,21.56,0,0,0-.44-4.44,9.3,9.3,0,0,0-1.42-3.47,6.43,6.43,0,0,0-2.71-2.15,12.28,12.28,0,0,0-4.79-.76,3.51,3.51,0,0,0-1.11.09c-.1.06-.17.33-.21.82l-1.05,23.27c0,.22,0,.45,0,.71,0,.62-.06,1.23-.06,1.84a1,1,0,0,0,.27.77A.94.94,0,0,0,481.79,385.11Z" transform="translate(-187.74 -165.28)"/><path class="cls-2" d="M523.49,394.63a25.57,25.57,0,0,1-3.79-.7,15.88,15.88,0,0,1-3.73-1.54,8.83,8.83,0,0,1-2.92-2.68,6.59,6.59,0,0,1-1.14-3.84q0-1.11.47-6.14l1.64-22a8.45,8.45,0,0,1,2.85-6.06,9.64,9.64,0,0,1,6.5-2.15,14.49,14.49,0,0,1,5.76,1.21,11.7,11.7,0,0,1,4.67,3.54,8.72,8.72,0,0,1,1.82,5.54,8.49,8.49,0,0,1-1.71,5.34,19.12,19.12,0,0,1-2,2.35,23.53,23.53,0,0,1,5.86,6.24,15,15,0,0,1,2.82,8.55,13.29,13.29,0,0,1-1.09,5.6,10.57,10.57,0,0,1-3.12,4,12.8,12.8,0,0,1-4.52,2.29,18.91,18.91,0,0,1-5.07.7C525.83,394.82,524.72,394.75,523.49,394.63Zm.38-32.12a4.89,4.89,0,0,0,2.29-1,1.82,1.82,0,0,0,.63-1.27,2,2,0,0,0-.73-1.54A3,3,0,0,0,524,358a1.39,1.39,0,0,0-.72.12c-.11.08-.17.43-.19,1.05l.15,3.51C523.46,362.61,523.67,362.55,523.87,362.51Zm.35,22.1a2.58,2.58,0,0,0,.36,1.63,2.24,2.24,0,0,0,1.12.57,8,8,0,0,0,1.74.17,4.73,4.73,0,0,0,1.85-.31,2.75,2.75,0,0,0,1.25-1.06,4.6,4.6,0,0,0,.49-2.43,8.4,8.4,0,0,0-1.28-4.33,18.47,18.47,0,0,0-3.19-3.92,27.44,27.44,0,0,0-2.87-2.36Z" transform="translate(-187.74 -165.28)"/><path class="cls-2" d="M560.28,382.54l-.41,8.1a4.82,4.82,0,0,1-1.1,2.67,4.09,4.09,0,0,1-3.35,1.54,3.8,3.8,0,0,1-3.42-1.47,5.05,5.05,0,0,1-1-2.74l-.7-30.88c-.06-1.56-.09-2.6-.09-3.13a4.79,4.79,0,0,1,1.47-3.51,10.83,10.83,0,0,1,3.48-2.28,20.35,20.35,0,0,1,4-1.17,20.76,20.76,0,0,1,3.5-.35,18.63,18.63,0,0,1,7.53,1.42,10.62,10.62,0,0,1,5,4.14,12.06,12.06,0,0,1,1.69,6.52,16.7,16.7,0,0,1-1.38,6.77,18,18,0,0,1-3.92,5.6,15.94,15.94,0,0,1-4,3.1l5.73,7.66a12.76,12.76,0,0,1,1.24,1.94,5.28,5.28,0,0,1,.6,2.53,3.62,3.62,0,0,1-1.48,3,5.93,5.93,0,0,1-3.78,1.15,6.32,6.32,0,0,1-4.14-1.26,8.15,8.15,0,0,1-2.27-2.8Zm1.9-25.7-1,13.48c.61-.39,1.2-.81,1.79-1.26a13.14,13.14,0,0,0,3.1-3.39,8.25,8.25,0,0,0,1.22-4.48,4.89,4.89,0,0,0-1-3.35,3.3,3.3,0,0,0-2.57-1.09A10.2,10.2,0,0,0,562.18,356.84Z" transform="translate(-187.74 -165.28)"/><path class="cls-2" d="M600.37,394.93a9.75,9.75,0,0,1-6.24-1.95,14.1,14.1,0,0,1-3.89-4.76,27.63,27.63,0,0,1-2.21-6,53.45,53.45,0,0,1-1.17-6.55c-.25-2.21-.42-4.33-.49-6.36s-.12-3.89-.12-5.47c0-.85,0-1.81.09-2.86a16.85,16.85,0,0,1,.43-3.19,7.7,7.7,0,0,1,1.63-3.1,4.93,4.93,0,0,1,4-1.49q6.5.06,6.49,6.43c0,.72,0,1.48-.09,2.26q-.25,4.56-.44,9c-.08,2-.11,3.91-.11,5.88a29.05,29.05,0,0,0,.29,4.15,17.29,17.29,0,0,0,.88,3.65,6.06,6.06,0,0,0,1.18,2.18,1.65,1.65,0,0,0,1,.6,2.11,2.11,0,0,0,1.46-.79,7.59,7.59,0,0,0,1.43-2.64,22.38,22.38,0,0,0,1-4.16,42,42,0,0,0,.48-4.44c.08-1.43.12-2.66.12-3.7,0-2.86-.17-5.79-.38-8.77-.17-2.26-.26-4-.26-5.26a7.9,7.9,0,0,1,.36-2.36,4.22,4.22,0,0,1,1.7-2.09,6.21,6.21,0,0,1,3.61-.93,6,6,0,0,1,3.65,1,4.31,4.31,0,0,1,1.72,2.22,9.37,9.37,0,0,1,.36,2.62c0,1.42-.09,3.16-.26,5.23q-.42,4.71-.82,8.77c-.16,1.79-.36,3.68-.62,5.66a41.12,41.12,0,0,1-1.19,5.88,21.77,21.77,0,0,1-2.37,5.43,12.81,12.81,0,0,1-4.33,4.23A13.08,13.08,0,0,1,600.37,394.93Z" transform="translate(-187.74 -165.28)"/><path class="cls-2" d="M640.61,358.31a12.38,12.38,0,0,0-2.09,3.77,28.24,28.24,0,0,0-1.52,6,46.09,46.09,0,0,0-.51,6.89,27.06,27.06,0,0,0,1.21,9,4.45,4.45,0,0,0,4.43,3.31q2.65,0,3.6-4.44l-2.93-.2a3.54,3.54,0,0,1-2.82-1.55,6.72,6.72,0,0,1-.69-3.25,4.67,4.67,0,0,1,.88-2.75,3.32,3.32,0,0,1,2.9-1.23,16.28,16.28,0,0,1,5,1.47,16.11,16.11,0,0,1,4.43,2.35,4.29,4.29,0,0,1,1.56,3.52,9.59,9.59,0,0,1-.18,1.73l-.41,2.34q-2.28,9.64-12.77,9.65a15.36,15.36,0,0,1-7.72-1.82,13.84,13.84,0,0,1-5-4.68,19.88,19.88,0,0,1-2.59-6.33,32.41,32.41,0,0,1-.77-7.14,36.48,36.48,0,0,1,1-8.59,30,30,0,0,1,3.12-7.89,18.72,18.72,0,0,1,5.45-6,13.3,13.3,0,0,1,7.94-2.42,10,10,0,0,1,6,1.71,11.75,11.75,0,0,1,3.64,4.11,18.68,18.68,0,0,1,1.78,5,25.19,25.19,0,0,1,.53,5,6,6,0,0,1-.72,3,5.46,5.46,0,0,1-2.07,2.06,5.92,5.92,0,0,1-2.94.77,5.09,5.09,0,0,1-3.57-1.15,5.23,5.23,0,0,1-1.61-2.52,11.11,11.11,0,0,1-.35-2.76,22.5,22.5,0,0,1,.22-3,24.24,24.24,0,0,0,.22-3.29c0-1.15-.28-1.72-.79-1.72A2.89,2.89,0,0,0,640.61,358.31Z" transform="translate(-187.74 -165.28)"/><path class="cls-3" d="M423.71,220.43c-63.13,8.72-104.61,38.34-122.35,53.64a.92.92,0,0,0,1.1,1.46c23.33-15.1,82.94-45.49,168.61-31.42C552,257.4,592.9,316.72,601.2,330.48a6.15,6.15,0,0,0,5.25,3H644.6a6.13,6.13,0,0,0,5.36-9.11c-17.17-31-71.36-101.28-177.13-106.11-2.36-.11-4.66-.13-7-.18l-6.35-.08c-3.08,0-6.14.05-9.15.16C450.36,218.13,432.93,219,423.71,220.43Z" transform="translate(-187.74 -165.28)"/><path class="cls-4" d="M242,238.92a1,1,0,0,0-.16.19h0" transform="translate(-187.74 -165.28)"/><path class="cls-4" d="M242.24,238.76h0a1.39,1.39,0,0,0-.19.15" transform="translate(-187.74 -165.28)"/><path class="cls-1" d="M575.09,238.22a.91.91,0,0,0,1-1.51C548.87,215.28,470.77,165,363.05,190.27,250.78,216.58,205.6,298,193.52,324.79a6.13,6.13,0,0,0,5.59,8.66H237.2a6.15,6.15,0,0,0,5.49-3.41c8.53-17.16,51.92-94.15,153-117.2C483.68,192.79,549.55,223.24,575.09,238.22Z" transform="translate(-187.74 -165.28)"/><path class="cls-3" d="M248.64,428.11h-5.29a2.21,2.21,0,0,1-1.64-.51,2.31,2.31,0,0,1-.49-1.64v-13a2.31,2.31,0,0,1,.5-1.65,2.27,2.27,0,0,1,1.63-.5H249a12.33,12.33,0,0,1,2.15.16,4.42,4.42,0,0,1,1.63.59,4.13,4.13,0,0,1,1.08.92,4,4,0,0,1,.72,1.24,4.08,4.08,0,0,1,.25,1.44,4,4,0,0,1-2.6,3.8q3.42,1.1,3.42,4.23a4.74,4.74,0,0,1-.75,2.62,4.46,4.46,0,0,1-2,1.72A7.23,7.23,0,0,1,251,428,18.7,18.7,0,0,1,248.64,428.11Zm-3.91-14.68v4.47h3.21a6.33,6.33,0,0,0,2-.25,1.93,1.93,0,0,0,1.09-.94,2.1,2.1,0,0,0,.3-1.11,1.72,1.72,0,0,0-.94-1.74,7.06,7.06,0,0,0-2.84-.43Zm3.65,7h-3.65v5.05h3.77q3.56,0,3.55-2.56a2.07,2.07,0,0,0-.92-1.9A5.18,5.18,0,0,0,248.38,420.42Z" transform="translate(-187.74 -165.28)"/><path class="cls-3" d="M268.8,426.15,268,424h-7.05l-.82,2.23a7.56,7.56,0,0,1-.83,1.75,1.32,1.32,0,0,1-1.12.45,1.66,1.66,0,0,1-1.17-.48,1.48,1.48,0,0,1-.51-1.1,2.42,2.42,0,0,1,.12-.73q.12-.37.39-1l4.43-11.25c.13-.32.28-.71.45-1.16a6.23,6.23,0,0,1,.57-1.13,2.41,2.41,0,0,1,.79-.73,2.49,2.49,0,0,1,1.21-.27,2.54,2.54,0,0,1,1.23.27,2.49,2.49,0,0,1,.79.72,5,5,0,0,1,.51.94c.13.33.31.78.52,1.34L272,424.94a5.54,5.54,0,0,1,.54,1.86,1.51,1.51,0,0,1-.51,1.1,1.61,1.61,0,0,1-1.21.5,1.73,1.73,0,0,1-.71-.14,1.49,1.49,0,0,1-.49-.41,3,3,0,0,1-.43-.77C269,426.72,268.91,426.42,268.8,426.15Zm-6.94-4.81H267l-2.61-7.15Z" transform="translate(-187.74 -165.28)"/><path class="cls-3" d="M288.28,422.91a5.06,5.06,0,0,1-.81,2.82,5.41,5.41,0,0,1-2.37,2,8.9,8.9,0,0,1-3.69.7,8.38,8.38,0,0,1-4.23-1,5.69,5.69,0,0,1-1.92-1.86,4.26,4.26,0,0,1-.74-2.27,1.52,1.52,0,0,1,1.57-1.54,1.32,1.32,0,0,1,.94.35,2.78,2.78,0,0,1,.65,1.05,7.34,7.34,0,0,0,.72,1.38,3,3,0,0,0,1.08.92,4,4,0,0,0,1.83.36,4.06,4.06,0,0,0,2.53-.73,2.19,2.19,0,0,0,1-1.81,1.92,1.92,0,0,0-.53-1.4,3.38,3.38,0,0,0-1.35-.82,22.83,22.83,0,0,0-2.23-.6,16.87,16.87,0,0,1-3.13-1,5.1,5.1,0,0,1-2-1.59,4.15,4.15,0,0,1-.74-2.51,4.32,4.32,0,0,1,.78-2.54,4.92,4.92,0,0,1,2.26-1.71,9.37,9.37,0,0,1,3.47-.59,8.75,8.75,0,0,1,2.76.39,6.11,6.11,0,0,1,1.93,1.05,4.51,4.51,0,0,1,1.12,1.38,3.12,3.12,0,0,1,.35,1.41,1.62,1.62,0,0,1-.44,1.12,1.39,1.39,0,0,1-1.1.51,1.25,1.25,0,0,1-.92-.31,4.26,4.26,0,0,1-.68-1,4.3,4.3,0,0,0-1.13-1.53,3.3,3.3,0,0,0-2.13-.55,3.68,3.68,0,0,0-2.19.6,1.72,1.72,0,0,0-.83,1.43,1.44,1.44,0,0,0,.28.9,2.42,2.42,0,0,0,.78.65,5.15,5.15,0,0,0,1,.42c.33.11.89.26,1.67.45a25.19,25.19,0,0,1,2.65.76,7.77,7.77,0,0,1,2,1,4.08,4.08,0,0,1,1.3,1.5A4.78,4.78,0,0,1,288.28,422.91Z" transform="translate(-187.74 -165.28)"/><path class="cls-3" d="M291.4,426.27V412.62a2.29,2.29,0,0,1,.48-1.59,1.61,1.61,0,0,1,1.26-.53,1.68,1.68,0,0,1,1.28.52,2.32,2.32,0,0,1,.49,1.6v13.65a2.32,2.32,0,0,1-.49,1.6,1.65,1.65,0,0,1-1.28.53,1.6,1.6,0,0,1-1.25-.53A2.3,2.3,0,0,1,291.4,426.27Z" transform="translate(-187.74 -165.28)"/><path class="cls-3" d="M312,422.91a5.06,5.06,0,0,1-.81,2.82,5.41,5.41,0,0,1-2.37,2,8.92,8.92,0,0,1-3.7.7,8.38,8.38,0,0,1-4.23-1,5.88,5.88,0,0,1-1.92-1.86,4.24,4.24,0,0,1-.73-2.27,1.49,1.49,0,0,1,.44-1.09,1.51,1.51,0,0,1,1.13-.45,1.32,1.32,0,0,1,.94.35,2.91,2.91,0,0,1,.65,1.05,6.79,6.79,0,0,0,.72,1.38,2.82,2.82,0,0,0,1.08.92,4,4,0,0,0,1.83.36,4.08,4.08,0,0,0,2.53-.73,2.19,2.19,0,0,0,1-1.81,1.92,1.92,0,0,0-.53-1.4,3.35,3.35,0,0,0-1.36-.82,21.77,21.77,0,0,0-2.22-.6,16.87,16.87,0,0,1-3.13-1,5,5,0,0,1-2-1.59,4.08,4.08,0,0,1-.74-2.51,4.32,4.32,0,0,1,.78-2.54,4.94,4.94,0,0,1,2.25-1.71,9.42,9.42,0,0,1,3.48-.59,8.64,8.64,0,0,1,2.75.39,6.17,6.17,0,0,1,1.94,1.05,4.51,4.51,0,0,1,1.12,1.38,3.26,3.26,0,0,1,.35,1.41,1.67,1.67,0,0,1-.44,1.12,1.41,1.41,0,0,1-1.11.51,1.23,1.23,0,0,1-.91-.31,4,4,0,0,1-.68-1,4.42,4.42,0,0,0-1.13-1.53,3.32,3.32,0,0,0-2.13-.55,3.64,3.64,0,0,0-2.19.6,1.7,1.7,0,0,0-.83,1.43,1.44,1.44,0,0,0,.28.9,2.42,2.42,0,0,0,.78.65,5.06,5.06,0,0,0,1,.42q.51.17,1.68.45a25.19,25.19,0,0,1,2.65.76,7.93,7.93,0,0,1,2,1,4.08,4.08,0,0,1,1.3,1.5A4.78,4.78,0,0,1,312,422.91Z" transform="translate(-187.74 -165.28)"/><path class="cls-3" d="M328.12,422.91a5.06,5.06,0,0,1-.81,2.82,5.38,5.38,0,0,1-2.36,2,9,9,0,0,1-3.7.7,8.38,8.38,0,0,1-4.23-1,5.69,5.69,0,0,1-1.92-1.86,4.26,4.26,0,0,1-.74-2.27,1.52,1.52,0,0,1,1.57-1.54,1.31,1.31,0,0,1,.94.35,2.79,2.79,0,0,1,.66,1.05,7.35,7.35,0,0,0,.71,1.38,3,3,0,0,0,1.08.92,4,4,0,0,0,1.83.36,4.11,4.11,0,0,0,2.54-.73,2.17,2.17,0,0,0,1-1.81,1.91,1.91,0,0,0-.52-1.4,3.42,3.42,0,0,0-1.36-.82,22.83,22.83,0,0,0-2.23-.6,17,17,0,0,1-3.12-1,5.06,5.06,0,0,1-2-1.59,4.15,4.15,0,0,1-.74-2.51,4.32,4.32,0,0,1,.78-2.54,4.92,4.92,0,0,1,2.26-1.71,9.37,9.37,0,0,1,3.47-.59,8.75,8.75,0,0,1,2.76.39,6,6,0,0,1,1.93,1.05,4.37,4.37,0,0,1,1.12,1.38,3.14,3.14,0,0,1,.36,1.41,1.63,1.63,0,0,1-.45,1.12,1.39,1.39,0,0,1-1.1.51,1.25,1.25,0,0,1-.92-.31,4.28,4.28,0,0,1-.67-1,4.44,4.44,0,0,0-1.14-1.53A3.3,3.3,0,0,0,321,413a3.68,3.68,0,0,0-2.19.6,1.72,1.72,0,0,0-.83,1.43,1.51,1.51,0,0,0,.28.9,2.42,2.42,0,0,0,.78.65,5.15,5.15,0,0,0,1,.42q.51.17,1.68.45a25.9,25.9,0,0,1,2.65.76,8.1,8.1,0,0,1,2,1,4.18,4.18,0,0,1,1.3,1.5A4.78,4.78,0,0,1,328.12,422.91Z" transform="translate(-187.74 -165.28)"/><path class="cls-3" d="M345.85,422.64a4.63,4.63,0,0,1-.4,1.79,6.65,6.65,0,0,1-3.52,3.4,8.1,8.1,0,0,1-3.16.57,10.73,10.73,0,0,1-2.5-.26,7.11,7.11,0,0,1-2-.8,6.94,6.94,0,0,1-1.69-1.45,9.22,9.22,0,0,1-1.17-1.83,9.54,9.54,0,0,1-.72-2.15,11.94,11.94,0,0,1-.25-2.44,10.9,10.9,0,0,1,.61-3.74,8,8,0,0,1,1.75-2.83,7.62,7.62,0,0,1,2.65-1.79,8.62,8.62,0,0,1,3.25-.61,8.15,8.15,0,0,1,3.75.84,6.71,6.71,0,0,1,2.51,2.07,4.11,4.11,0,0,1,.88,2.33,1.52,1.52,0,0,1-.43,1.06,1.35,1.35,0,0,1-1,.47,1.44,1.44,0,0,1-1-.32,4.85,4.85,0,0,1-.75-1.1,5.24,5.24,0,0,0-1.61-1.93,4,4,0,0,0-2.28-.64,4.14,4.14,0,0,0-3.45,1.65,7.45,7.45,0,0,0-1.28,4.66,8.6,8.6,0,0,0,.57,3.36,4.22,4.22,0,0,0,1.6,2,4.4,4.4,0,0,0,2.44.67,4.23,4.23,0,0,0,2.55-.75,4.5,4.5,0,0,0,1.58-2.21,3.71,3.71,0,0,1,.56-1.11,1.24,1.24,0,0,1,1.06-.43,1.5,1.5,0,0,1,1.52,1.52Z" transform="translate(-187.74 -165.28)"/><path class="cls-3" d="M352.54,412.62v5h7.57v-5a2.29,2.29,0,0,1,.48-1.59,1.6,1.6,0,0,1,1.26-.53,1.68,1.68,0,0,1,1.28.52,2.27,2.27,0,0,1,.49,1.6v13.65a2.27,2.27,0,0,1-.5,1.6,1.63,1.63,0,0,1-1.27.53,1.6,1.6,0,0,1-1.27-.53,2.41,2.41,0,0,1-.47-1.6v-5.83h-7.57v5.83a2.27,2.27,0,0,1-.5,1.6,1.63,1.63,0,0,1-1.27.53,1.6,1.6,0,0,1-1.27-.53,2.41,2.41,0,0,1-.47-1.6V412.62a2.34,2.34,0,0,1,.47-1.59,1.58,1.58,0,0,1,1.27-.53,1.68,1.68,0,0,1,1.28.52A2.27,2.27,0,0,1,352.54,412.62Z" transform="translate(-187.74 -165.28)"/><path class="cls-3" d="M375,410.5a9.23,9.23,0,0,1,4.62,1.09,7,7,0,0,1,2.92,3.11,10.47,10.47,0,0,1,1,4.73,11.37,11.37,0,0,1-.55,3.65,7.77,7.77,0,0,1-1.63,2.84,7,7,0,0,1-2.67,1.85,9.7,9.7,0,0,1-3.62.63,9.49,9.49,0,0,1-3.64-.65,7.15,7.15,0,0,1-2.68-1.85,7.94,7.94,0,0,1-1.63-2.87,11.8,11.8,0,0,1-.55-3.63,11,11,0,0,1,.58-3.66,7.74,7.74,0,0,1,1.66-2.83,7.07,7.07,0,0,1,2.64-1.79A9.41,9.41,0,0,1,375,410.5Zm5,8.9a8.12,8.12,0,0,0-.61-3.29,4.62,4.62,0,0,0-1.76-2.11,4.78,4.78,0,0,0-2.61-.72,4.86,4.86,0,0,0-1.95.4,4.29,4.29,0,0,0-1.53,1.15,5.61,5.61,0,0,0-1,1.93,8.73,8.73,0,0,0-.37,2.64,8.84,8.84,0,0,0,.37,2.67,5.48,5.48,0,0,0,1.05,2,4.48,4.48,0,0,0,1.56,1.18,4.91,4.91,0,0,0,4.41-.29,4.62,4.62,0,0,0,1.79-2.08A7.94,7.94,0,0,0,380,419.4Z" transform="translate(-187.74 -165.28)"/><path class="cls-3" d="M394.17,410.5a9.23,9.23,0,0,1,4.62,1.09,7,7,0,0,1,2.92,3.11,10.47,10.47,0,0,1,1,4.73,11.65,11.65,0,0,1-.55,3.65,7.77,7.77,0,0,1-1.63,2.84,7,7,0,0,1-2.67,1.85,9.7,9.7,0,0,1-3.62.63,9.49,9.49,0,0,1-3.64-.65,7.15,7.15,0,0,1-2.68-1.85,7.94,7.94,0,0,1-1.63-2.87,11.8,11.8,0,0,1-.55-3.63,11,11,0,0,1,.58-3.66,7.74,7.74,0,0,1,1.66-2.83,7.07,7.07,0,0,1,2.64-1.79A9.41,9.41,0,0,1,394.17,410.5Zm5,8.9a8.12,8.12,0,0,0-.61-3.29,4.62,4.62,0,0,0-1.76-2.11,5,5,0,0,0-4.56-.32,4.29,4.29,0,0,0-1.53,1.15,5.61,5.61,0,0,0-1,1.93,8.73,8.73,0,0,0-.37,2.64,8.84,8.84,0,0,0,.37,2.67,5.48,5.48,0,0,0,1.05,2,4.39,4.39,0,0,0,1.56,1.18,4.91,4.91,0,0,0,4.41-.29,4.62,4.62,0,0,0,1.79-2.08A7.94,7.94,0,0,0,399.15,419.4Z" transform="translate(-187.74 -165.28)"/><path class="cls-3" d="M409.14,412.62v12.61h7.11a1.86,1.86,0,0,1,1.31.41,1.36,1.36,0,0,1,.45,1,1.33,1.33,0,0,1-.44,1,1.91,1.91,0,0,1-1.32.4h-8.46a1.84,1.84,0,0,1-2.15-2.15V412.62a2.29,2.29,0,0,1,.47-1.59,1.6,1.6,0,0,1,1.26-.53,1.65,1.65,0,0,1,1.28.52A2.27,2.27,0,0,1,409.14,412.62Z" transform="translate(-187.74 -165.28)"/><path class="cls-1" d="M308.07,189.65c-1.49-4.31,3.51-13.37,5.79-17.16a1.6,1.6,0,0,0-.9-2.35l-2.43-.77a1.61,1.61,0,0,0-2,1.11c-1.49,5.45-4.36,14.21-18.92,15.13a2.42,2.42,0,0,0-2.16,1.13l-4.93,6.48a2.28,2.28,0,0,1-2.12.89l-12.22-.29a2,2,0,0,0-2,.73c-4.25,7-13,9.38-28,2.66a1.59,1.59,0,0,0-2.15,1l-.9,2.87a1.61,1.61,0,0,0,1.2,2c12.74,2.72,21.32,3.67,22.23,12.9,1.05,10.71-2.86,29.51-2.86,29.51l11-9.73s-7.56-26.67,16.07-11.48h0l11.1-7.46s-19.94-4.55-22.67-12.44,13.3-3.19,14.2-3.2c.2-.4,9.16-18,12.93-5.19,2.12,7.25-3.93,20.52-3.93,20.52l7.94-4.07s-.47-22.51,17.36-8.24h0l10.37-4.1S310,195.19,308.07,189.65Z" transform="translate(-187.74 -165.28)"/><path class="cls-1" d="M308.31,180.63" transform="translate(-187.74 -165.28)"/><path class="cls-1" d="M289.92,184.26" transform="translate(-187.74 -165.28)"/><circle class="cls-1" cx="67.32" cy="25.44" r="8.67"/><circle class="cls-1" cx="106.41" cy="8.67" r="8.67"/><path class="cls-1" d="M437.88,410.79a9.13,9.13,0,0,1,4.6,1.09,7.06,7.06,0,0,1,2.92,3.1,10.48,10.48,0,0,1,1,4.71,11.31,11.31,0,0,1-.55,3.64,7.85,7.85,0,0,1-1.62,2.83,7.06,7.06,0,0,1-2.66,1.84,9.68,9.68,0,0,1-3.61.64,9.47,9.47,0,0,1-3.63-.66,7.09,7.09,0,0,1-2.67-1.84,7.87,7.87,0,0,1-1.62-2.86,11.67,11.67,0,0,1-.55-3.61,11.13,11.13,0,0,1,.57-3.65,7.88,7.88,0,0,1,1.66-2.83,7.21,7.21,0,0,1,2.63-1.78A9.59,9.59,0,0,1,437.88,410.79Zm5,8.88a8.08,8.08,0,0,0-.61-3.29,4.62,4.62,0,0,0-1.75-2.1,5.08,5.08,0,0,0-4.54-.32,4.41,4.41,0,0,0-1.53,1.15,5.26,5.26,0,0,0-1,1.93,8.57,8.57,0,0,0-.37,2.63,8.86,8.86,0,0,0,.37,2.66,5.35,5.35,0,0,0,1,2,4.48,4.48,0,0,0,1.56,1.17,4.64,4.64,0,0,0,1.92.39,4.79,4.79,0,0,0,2.47-.67,4.71,4.71,0,0,0,1.79-2.07A8.1,8.1,0,0,0,442.84,419.67Z" transform="translate(-187.74 -165.28)"/><path class="cls-1" d="M449.4,421.21v-8.3a2.29,2.29,0,0,1,.48-1.59,1.59,1.59,0,0,1,1.25-.53,1.67,1.67,0,0,1,1.29.53,2.29,2.29,0,0,1,.48,1.59v8.49a7.67,7.67,0,0,0,.32,2.42,2.75,2.75,0,0,0,1.15,1.5,4.18,4.18,0,0,0,2.3.54,3.45,3.45,0,0,0,2.9-1.09,5.38,5.38,0,0,0,.85-3.3v-8.56a2.32,2.32,0,0,1,.47-1.6,1.63,1.63,0,0,1,1.26-.52,1.68,1.68,0,0,1,1.27.52,2.27,2.27,0,0,1,.49,1.6v8.3a12.46,12.46,0,0,1-.39,3.38A5.17,5.17,0,0,1,462,427a5.76,5.76,0,0,1-2.19,1.28,9.77,9.77,0,0,1-2.92.4,12.22,12.22,0,0,1-3.42-.43,5.57,5.57,0,0,1-2.35-1.33,5.48,5.48,0,0,1-1.33-2.31A11.85,11.85,0,0,1,449.4,421.21Z" transform="translate(-187.74 -165.28)"/><path class="cls-1" d="M469.86,411.09h4.55a12.8,12.8,0,0,1,3,.32,5.66,5.66,0,0,1,2.31,1.24c1.8,1.54,2.69,3.88,2.69,7a13.74,13.74,0,0,1-.27,2.83,8.61,8.61,0,0,1-.83,2.32,7.32,7.32,0,0,1-1.45,1.84,6.06,6.06,0,0,1-1.52,1,6.86,6.86,0,0,1-1.77.53,13.72,13.72,0,0,1-2.14.15h-4.55a2.77,2.77,0,0,1-1.44-.29,1.34,1.34,0,0,1-.63-.81,5.11,5.11,0,0,1-.14-1.36V413.23a1.82,1.82,0,0,1,2.14-2.14Zm1.35,2.76v11.71h2.65c.58,0,1,0,1.37,0a4.06,4.06,0,0,0,1-.24,2.71,2.71,0,0,0,.92-.53q1.75-1.49,1.75-5.11a7.53,7.53,0,0,0-.77-3.82,3.42,3.42,0,0,0-1.9-1.62,9.39,9.39,0,0,0-2.73-.35Z" transform="translate(-187.74 -165.28)"/><path class="cls-1" d="M496.91,413.78H489V418h7.25a1.72,1.72,0,0,1,1.2.36,1.22,1.22,0,0,1,.39.95,1.24,1.24,0,0,1-.39.95,1.64,1.64,0,0,1-1.2.38H489v4.9h8.15a1.76,1.76,0,0,1,1.24.39,1.41,1.41,0,0,1,0,2,1.8,1.8,0,0,1-1.24.38h-9.5a1.82,1.82,0,0,1-2.14-2.14v-13a2.91,2.91,0,0,1,.22-1.23,1.4,1.4,0,0,1,.7-.7,3,3,0,0,1,1.22-.21h9.23a1.79,1.79,0,0,1,1.24.37,1.25,1.25,0,0,1,.41,1,1.28,1.28,0,0,1-.41,1A1.79,1.79,0,0,1,496.91,413.78Z" transform="translate(-187.74 -165.28)"/><path class="cls-1" d="M506.17,412.89l6.72,10.17V412.79a2.29,2.29,0,0,1,.43-1.5,1.46,1.46,0,0,1,1.16-.5,1.51,1.51,0,0,1,1.19.5,2.24,2.24,0,0,1,.44,1.5v13.57q0,2.28-1.89,2.28a2.47,2.47,0,0,1-.84-.14,2,2,0,0,1-.71-.43,4.12,4.12,0,0,1-.61-.69l-.57-.8-6.55-10.06v10.11a2.21,2.21,0,0,1-.46,1.5,1.52,1.52,0,0,1-1.18.51,1.48,1.48,0,0,1-1.19-.52,2.18,2.18,0,0,1-.45-1.49V413.32a3.91,3.91,0,0,1,.19-1.33,1.92,1.92,0,0,1,.74-.86,2,2,0,0,1,1.12-.34,2,2,0,0,1,.81.15,2,2,0,0,1,.59.42,4,4,0,0,1,.51.67C505.8,412.3,506,412.59,506.17,412.89Z" transform="translate(-187.74 -165.28)"/><path class="cls-1" d="M530.65,426.39l-.82-2.17h-7l-.83,2.21a7.44,7.44,0,0,1-.82,1.75,1.32,1.32,0,0,1-1.12.46,1.63,1.63,0,0,1-1.17-.49,1.48,1.48,0,0,1-.5-1.09,2.37,2.37,0,0,1,.12-.73c.07-.25.2-.6.38-1.05l4.42-11.2c.12-.33.28-.71.45-1.16a5.92,5.92,0,0,1,.57-1.13,2.19,2.19,0,0,1,.79-.72,2.32,2.32,0,0,1,1.2-.28,2.39,2.39,0,0,1,1.22.28,2.26,2.26,0,0,1,.79.71,5,5,0,0,1,.51.94c.13.33.31.77.52,1.33l4.51,11.14a5.6,5.6,0,0,1,.53,1.85,1.55,1.55,0,0,1-.5,1.1,1.68,1.68,0,0,1-1.21.5,1.55,1.55,0,0,1-.71-.15,1.46,1.46,0,0,1-.49-.4,3.75,3.75,0,0,1-.43-.78C530.9,427,530.77,426.65,530.65,426.39Zm-6.92-4.79h5.16l-2.6-7.12Z" transform="translate(-187.74 -165.28)"/><path class="cls-1" d="M548,426.39l-.82-2.17h-7l-.82,2.21a7.87,7.87,0,0,1-.82,1.75,1.32,1.32,0,0,1-1.12.46,1.63,1.63,0,0,1-1.17-.49,1.48,1.48,0,0,1-.5-1.09,2.69,2.69,0,0,1,.11-.73q.12-.37.39-1.05l4.42-11.2c.12-.33.27-.71.45-1.16a6.6,6.6,0,0,1,.56-1.13,2.28,2.28,0,0,1,2-1,2.39,2.39,0,0,1,1.22.28,2.35,2.35,0,0,1,.79.71,4.45,4.45,0,0,1,.5.94c.14.33.32.77.53,1.33l4.51,11.14a5.52,5.52,0,0,1,.52,1.85,1.54,1.54,0,0,1-.49,1.1,1.68,1.68,0,0,1-1.21.5,1.55,1.55,0,0,1-.71-.15,1.46,1.46,0,0,1-.49-.4,3.34,3.34,0,0,1-.43-.78Zm-6.92-4.79h5.16l-2.6-7.12Z" transform="translate(-187.74 -165.28)"/><path class="cls-1" d="M559,421h-1.23v5.55a2.31,2.31,0,0,1-.48,1.61,1.66,1.66,0,0,1-1.26.52,1.56,1.56,0,0,1-1.29-.55,2.36,2.36,0,0,1-.46-1.58V413.23a2.28,2.28,0,0,1,.5-1.64,2.25,2.25,0,0,1,1.64-.5h5.69a16.61,16.61,0,0,1,2,.1,4.86,4.86,0,0,1,1.5.4,4.29,4.29,0,0,1,1.44,1,4.18,4.18,0,0,1,1,1.48,5,5,0,0,1,.32,1.78,4.28,4.28,0,0,1-1.09,3.08,6.19,6.19,0,0,1-3.3,1.64,6.54,6.54,0,0,1,1.78,1.46,15,15,0,0,1,1.51,2.05,14.78,14.78,0,0,1,1,2,4.06,4.06,0,0,1,.37,1.21,1.19,1.19,0,0,1-.22.67,1.45,1.45,0,0,1-.59.53,1.93,1.93,0,0,1-.88.2,1.69,1.69,0,0,1-1-.28,2.7,2.7,0,0,1-.69-.7c-.19-.28-.46-.7-.79-1.25l-1.4-2.33a13,13,0,0,0-1.34-1.95,3.27,3.27,0,0,0-1.21-.92A4,4,0,0,0,559,421Zm2-7.25h-3.23v4.74h3.13a9.08,9.08,0,0,0,2.12-.21,2.61,2.61,0,0,0,1.32-.74,2.3,2.3,0,0,0-.93-3.53A7.34,7.34,0,0,0,561,413.71Z" transform="translate(-187.74 -165.28)"/><path class="cls-1" d="M573.8,411.09h4.55a12.8,12.8,0,0,1,3,.32,5.66,5.66,0,0,1,2.31,1.24q2.68,2.31,2.69,7a13.74,13.74,0,0,1-.27,2.83,8.61,8.61,0,0,1-.83,2.32,7.32,7.32,0,0,1-1.45,1.84,6.24,6.24,0,0,1-1.52,1,6.86,6.86,0,0,1-1.77.53,13.81,13.81,0,0,1-2.14.15h-4.55a2.77,2.77,0,0,1-1.44-.29,1.34,1.34,0,0,1-.63-.81,5.06,5.06,0,0,1-.15-1.36V413.23a1.83,1.83,0,0,1,2.15-2.14Zm1.35,2.76v11.71h2.65c.58,0,1,0,1.36,0a4.13,4.13,0,0,0,1-.24,2.71,2.71,0,0,0,.92-.53q1.75-1.49,1.75-5.11a7.53,7.53,0,0,0-.77-3.82,3.45,3.45,0,0,0-1.9-1.62,9.48,9.48,0,0,0-2.73-.35Z" transform="translate(-187.74 -165.28)"/><path class="cls-1" d="M600.85,413.78H593V418h7.25a1.74,1.74,0,0,1,1.2.36,1.22,1.22,0,0,1,.39.95,1.24,1.24,0,0,1-.39.95,1.68,1.68,0,0,1-1.2.38H593v4.9h8.15a1.76,1.76,0,0,1,1.24.39,1.41,1.41,0,0,1,0,2,1.8,1.8,0,0,1-1.24.38h-9.5a1.83,1.83,0,0,1-2.15-2.14v-13a2.9,2.9,0,0,1,.23-1.23,1.4,1.4,0,0,1,.7-.7,3,3,0,0,1,1.22-.21h9.23a1.79,1.79,0,0,1,1.24.37,1.24,1.24,0,0,1,.4,1,1.27,1.27,0,0,1-.4,1A1.79,1.79,0,0,1,600.85,413.78Z" transform="translate(-187.74 -165.28)"/></svg>