<svg id="Laag_1" data-name="Laag 1" xmlns="http://www.w3.org/2000/svg" viewBox="0 0 502.27 283.6"><defs><style>.cls-1{fill:#c30249;}.cls-2{fill:#00b5dd;}.cls-3{fill:#a2b91c;}.cls-4{fill:#a7ba19;}</style></defs><title>Logo_SVG</title><path class="cls-1" d="M346.36,181a6.8,6.8,0,0,0,1.32-4.76c-.16-1.87-.31-3.73-.48-5.59-.12-1.28-.27-2.56-.41-3.83-.26-2.21-.53-4.42-.78-6.64-.15-1.43-.26-2.86-.43-4.29-.24-2.09-.58-4.17-.75-6.26a10.68,10.68,0,0,0-1.33-4.62,4.61,4.61,0,0,0-6.68-1.59c-1.82,1.24-2.29,3.16-2.29,5.13,0,2.25.36,4.51.58,6.76.12,1.25.26,2.49.4,3.74.26,2.24.53,4.48.78,6.72.16,1.43.27,2.87.43,4.3.24,2.09.54,4.17.76,6.26a9.08,9.08,0,0,0,1.4,4.2A4.68,4.68,0,0,0,346.36,181Z" transform="translate(-46.5 -40.93)"/><path class="cls-1" d="M348.45,187.94a5.19,5.19,0,0,0-7.33-1.07,6.24,6.24,0,0,0-2.4,5.2,7,7,0,0,0,2.75,6,5,5,0,0,0,6.65-.45C350.71,195.13,350.66,190.7,348.45,187.94Z" transform="translate(-46.5 -40.93)"/><path class="cls-1" d="M337.31,187.66a34.39,34.39,0,0,0-1.75-8.94c-1.62-5-4.06-9.39-8.15-12.8a20.31,20.31,0,0,0-12.69-4.7,22.76,22.76,0,0,0-7.67,1.13,19.66,19.66,0,0,0-10.32,7.39,24,24,0,0,0-3.59,7.35c-1.64-2.38-4-2.27-6.31-2.08-2.13.18-4.24.51-6.37.76-1.85.22-3.71.37-5.55.62a5,5,0,0,0-3.21,1.73c-1.42,1.63-1.43,3.59-1.14,5.49A8,8,0,0,0,272,187c1.56,2.14,3.91,1.86,6.17,1.66,1.67-.16,3.33-.39,5.14-.6a19.52,19.52,0,0,1,0,2,14.43,14.43,0,0,1-.35,2.07c-1.57,6.74-7.69,9.78-13.64,7.85-3.51-1.14-5.69-3.82-7.29-7a27.77,27.77,0,0,1-2.79-10.52A23.5,23.5,0,0,1,260.65,172a13.48,13.48,0,0,1,3.28-5.13,10.83,10.83,0,0,1,6-2.88,11.73,11.73,0,0,1,7.41,1.35c1.58.84,3.08,1.86,4.68,2.67a4.9,4.9,0,0,0,7.17-3.77,9.71,9.71,0,0,0-4.52-9.34c-3.72-2.59-8-3.42-12.39-3.58a30.44,30.44,0,0,0-5,.39,20.72,20.72,0,0,0-11.94,5.87,25.85,25.85,0,0,0-5.84,8.69,33.34,33.34,0,0,0-2.58,11.8,55.68,55.68,0,0,0,.23,6.83,37.7,37.7,0,0,0,.87,5.5,34.68,34.68,0,0,0,6.09,13.46,24.08,24.08,0,0,0,7.72,6.69,22.52,22.52,0,0,0,15.14,2.12,19.82,19.82,0,0,0,13.38-8.79c1.09-1.64,1.95-3.43,2.89-5.1.38,1.07.78,2.25,1.21,3.41a25.45,25.45,0,0,0,8,11.42,19.56,19.56,0,0,0,12,4.29,28.68,28.68,0,0,0,5.83-.58,19.36,19.36,0,0,0,13.1-8.92,27.91,27.91,0,0,0,4.19-13.94C337.64,192.22,337.41,189.94,337.31,187.66ZM324.47,200a9.93,9.93,0,0,1-8.73,6.06c-4.21.1-7.07-1.91-9.18-5.29a22.18,22.18,0,0,1-3.07-9.36,31.68,31.68,0,0,1-.38-4.75c.12-3.59.65-7.11,2.85-10.13a9.35,9.35,0,0,1,7.19-4c4.7-.32,7.77,2.14,9.92,5.95a22.23,22.23,0,0,1,2.77,9.29c.09,1.16.19,2.32.29,3.48A20.93,20.93,0,0,1,324.47,200Z" transform="translate(-46.5 -40.93)"/><path class="cls-2" d="M48,279.05,46.6,249.42c-.07-1.07-.1-1.79-.1-2.14a5.56,5.56,0,0,1,1.67-4.11,10.94,10.94,0,0,1,3.92-2.49,20.58,20.58,0,0,1,4.53-1.13,32,32,0,0,1,4.11-.3,24,24,0,0,1,11.48,2.61,17.75,17.75,0,0,1,7.46,7.4,23.59,23.59,0,0,1,2.57,11.3,29.29,29.29,0,0,1-2.65,12.16A31.05,31.05,0,0,1,75,280.2,25,25,0,0,1,68.13,286a17.35,17.35,0,0,1-8.85,2.32,23.77,23.77,0,0,1-3.6-.32,10.64,10.64,0,0,1-3.57-1.17,8.59,8.59,0,0,1-1.39-.91Q48.17,283.59,48,279.05Zm11.12-1.39a7.6,7.6,0,0,0,4.41-1.43,13.71,13.71,0,0,0,3.71-4.13,22.72,22.72,0,0,0,2.6-6.06,24.85,24.85,0,0,0,.93-6.64,23.58,23.58,0,0,0-.47-4.79,10.15,10.15,0,0,0-1.53-3.73,6.81,6.81,0,0,0-2.91-2.31,13.07,13.07,0,0,0-5.17-.82,4,4,0,0,0-1.19.09c-.11.07-.18.36-.22.89l-1.14,25.06q0,.34,0,.75c0,.68-.06,1.34-.06,2a1.14,1.14,0,0,0,.28.83A1,1,0,0,0,59.16,277.66Z" transform="translate(-46.5 -40.93)"/><path class="cls-2" d="M111.53,240.7l1.51,0a10.18,10.18,0,0,1,3.37.56A5.53,5.53,0,0,1,119,243a4.59,4.59,0,0,1,1,2.91,5.09,5.09,0,0,1-1.57,3.91,6.93,6.93,0,0,1-4.79,1.45,15.43,15.43,0,0,1-2.08-.16l-7.21-.82-.44,13.16,2.27-.5a17.57,17.57,0,0,1,2.64-.22,5.89,5.89,0,0,1,3.89,1.35,4,4,0,0,1,1.62,3.15,4.85,4.85,0,0,1-1.49,3.23q-1.5,1.62-4.93,1.75l-4.32,0-.09,7.11,6.64-1.26a17.93,17.93,0,0,1,3.09-.28,4.84,4.84,0,0,1,3.83,1.46,4.9,4.9,0,0,1,1.27,3.3,5,5,0,0,1-1.87,4.1,7.72,7.72,0,0,1-5,1.53l-10.42-.5q-4,0-5.57-1.67t-1.83-5.76L91.76,250c-.11-1.28-.16-2.1-.16-2.45a4.78,4.78,0,0,1,.94-3,5.71,5.71,0,0,1,2.55-1.89,11.63,11.63,0,0,1,3.37-.76Z" transform="translate(-46.5 -40.93)"/><path class="cls-2" d="M179.68,255.18l2.9,15,3.21-23.33a16.1,16.1,0,0,1,.8-2.68,9,9,0,0,1,1.86-2.77,4.94,4.94,0,0,1,3.76-1.38q3,0,4,1.65a6.45,6.45,0,0,1,1,3.35,14.52,14.52,0,0,1-.33,2.72c-.2.94-.41,1.76-.62,2.48l-7.9,30.26a9.86,9.86,0,0,1-1.42,3.35,5.36,5.36,0,0,1-2.25,1.91,6.6,6.6,0,0,1-2.66.59,7.45,7.45,0,0,1-2.38-.41,4.47,4.47,0,0,1-2.12-1.51,8.63,8.63,0,0,1-1.42-2.74l-3.24-10.77-3.43,11.56a12.37,12.37,0,0,1-1.47,3.28,5.27,5.27,0,0,1-2.17,1.9,6.25,6.25,0,0,1-2.69.61,7,7,0,0,1-2.36-.42,5.08,5.08,0,0,1-2.14-1.51,7.07,7.07,0,0,1-1.42-2.82l-8-35.14a17.09,17.09,0,0,1-.34-3.18q0-6,6-6.08,6.8.09,7.84,7.28l1.8,24.68L168.22,255c1.22-4.16,3.09-6.23,5.61-6.23Q178.14,248.73,179.68,255.18Z" transform="translate(-46.5 -40.93)"/><path class="cls-2" d="M226.67,240.7l1.51,0a10.18,10.18,0,0,1,3.37.56,5.53,5.53,0,0,1,2.61,1.81,4.59,4.59,0,0,1,1,2.91,5.06,5.06,0,0,1-1.58,3.91,6.88,6.88,0,0,1-4.78,1.45,15.43,15.43,0,0,1-2.08-.16l-7.21-.82-.44,13.16,2.26-.5a17.8,17.8,0,0,1,2.65-.22,5.89,5.89,0,0,1,3.89,1.35,4,4,0,0,1,1.62,3.15,4.82,4.82,0,0,1-1.5,3.23c-1,1.08-2.64,1.66-4.92,1.75l-4.32,0-.09,7.11,6.64-1.26a17.93,17.93,0,0,1,3.09-.28,4.81,4.81,0,0,1,3.82,1.46,4.91,4.91,0,0,1,1.28,3.3,5,5,0,0,1-1.87,4.1,7.72,7.72,0,0,1-5,1.53l-10.42-.5q-4,0-5.57-1.67t-1.83-5.76L206.89,250c-.1-1.28-.15-2.1-.15-2.45a4.78,4.78,0,0,1,.94-3,5.71,5.71,0,0,1,2.55-1.89,11.56,11.56,0,0,1,3.37-.76Z" transform="translate(-46.5 -40.93)"/><path class="cls-2" d="M255.14,274.89l-.44,8.72a5.18,5.18,0,0,1-1.18,2.88,4.44,4.44,0,0,1-3.61,1.66,4.08,4.08,0,0,1-3.68-1.58,5.45,5.45,0,0,1-1-3l-.76-33.25c-.06-1.68-.09-2.8-.09-3.37a5.09,5.09,0,0,1,1.59-3.77,11.42,11.42,0,0,1,3.75-2.46A20.66,20.66,0,0,1,254,239.5a22.33,22.33,0,0,1,3.78-.38,20.13,20.13,0,0,1,8.11,1.53,11.51,11.51,0,0,1,5.34,4.45,13.11,13.11,0,0,1,1.82,7,18,18,0,0,1-1.49,7.29,19.41,19.41,0,0,1-4.22,6,16.84,16.84,0,0,1-4.33,3.33l6.17,8.25a14.39,14.39,0,0,1,1.34,2.1,5.69,5.69,0,0,1,.64,2.72,3.92,3.92,0,0,1-1.59,3.23,6.41,6.41,0,0,1-4.07,1.24A6.84,6.84,0,0,1,261,285a8.77,8.77,0,0,1-2.44-3Zm2.05-27.68-1.07,14.52q1-.63,1.92-1.35a13.81,13.81,0,0,0,3.33-3.66,8.87,8.87,0,0,0,1.33-4.81,5.26,5.26,0,0,0-1.07-3.61,3.58,3.58,0,0,0-2.78-1.18A11.7,11.7,0,0,0,257.19,247.21Z" transform="translate(-46.5 -40.93)"/><path class="cls-2" d="M303,240.7l1.51,0a10.18,10.18,0,0,1,3.37.56,5.53,5.53,0,0,1,2.61,1.81,4.59,4.59,0,0,1,1,2.91,5.06,5.06,0,0,1-1.58,3.91,6.88,6.88,0,0,1-4.78,1.45,15.43,15.43,0,0,1-2.08-.16l-7.21-.82-.44,13.16,2.27-.5a17.57,17.57,0,0,1,2.64-.22,5.89,5.89,0,0,1,3.89,1.35,4,4,0,0,1,1.62,3.15,4.82,4.82,0,0,1-1.5,3.23c-1,1.08-2.64,1.66-4.92,1.75l-4.32,0-.09,7.11,6.64-1.26a17.93,17.93,0,0,1,3.09-.28,4.81,4.81,0,0,1,3.82,1.46,4.91,4.91,0,0,1,1.28,3.3,5,5,0,0,1-1.87,4.1,7.72,7.72,0,0,1-5,1.53l-10.42-.5q-4,0-5.57-1.67t-1.83-5.76L283.26,250c-.1-1.28-.15-2.1-.15-2.45a4.78,4.78,0,0,1,.94-3,5.71,5.71,0,0,1,2.55-1.89,11.63,11.63,0,0,1,3.37-.76Z" transform="translate(-46.5 -40.93)"/><path class="cls-2" d="M338.31,277.06a4.74,4.74,0,0,1,3.92,1.47,4.69,4.69,0,0,1,1.18,3,4.2,4.2,0,0,1-1.57,3.47,8.29,8.29,0,0,1-3,1.54l-7.74,1.23a36.8,36.8,0,0,1-3.87.5,4.42,4.42,0,0,1-4-1.82,10.21,10.21,0,0,1-1.61-5.36l-1.48-30.13c-.15-2.43-.22-4-.22-4.66a11.67,11.67,0,0,1,.39-3,5.82,5.82,0,0,1,1.78-2.72,5.72,5.72,0,0,1,4-1.26,7,7,0,0,1,4.06,1.07,5.4,5.4,0,0,1,2.08,2.46,7.77,7.77,0,0,1,.54,2.86q0,1.61-.29,7l-1,26.39,3.78-1.26A8.85,8.85,0,0,1,338.31,277.06Z" transform="translate(-46.5 -40.93)"/><path class="cls-2" d="M352.05,279.05l-1.45-29.63c-.07-1.07-.1-1.79-.1-2.14a5.56,5.56,0,0,1,1.67-4.11,10.94,10.94,0,0,1,3.92-2.49,20.66,20.66,0,0,1,4.54-1.13,31.8,31.8,0,0,1,4.11-.3,24,24,0,0,1,11.47,2.61,17.77,17.77,0,0,1,7.47,7.4,23.59,23.59,0,0,1,2.56,11.3,29.44,29.44,0,0,1-2.64,12.16,31.41,31.41,0,0,1-4.6,7.48,25.08,25.08,0,0,1-6.86,5.79,17.4,17.4,0,0,1-8.85,2.32,24,24,0,0,1-3.61-.32,10.72,10.72,0,0,1-3.57-1.17,8.59,8.59,0,0,1-1.39-.91Q352.17,283.59,352.05,279.05Zm11.11-1.39a7.56,7.56,0,0,0,4.41-1.43,13.71,13.71,0,0,0,3.71-4.13,22.72,22.72,0,0,0,2.6-6.06,24.85,24.85,0,0,0,.93-6.64,23.58,23.58,0,0,0-.47-4.79,10,10,0,0,0-1.53-3.73,6.81,6.81,0,0,0-2.91-2.31,13,13,0,0,0-5.16-.82,4,4,0,0,0-1.2.09c-.11.07-.18.36-.22.89l-1.13,25.06c0,.23,0,.48,0,.75,0,.68-.06,1.34-.06,2a1.19,1.19,0,0,0,.28.83A1,1,0,0,0,363.16,277.66Z" transform="translate(-46.5 -40.93)"/><path class="cls-2" d="M411.66,239.31a19.83,19.83,0,0,1,5.46.76,13.89,13.89,0,0,1,4.87,2.45,11.43,11.43,0,0,1,3.35,4.27,14.26,14.26,0,0,1,1.18,6,16.11,16.11,0,0,1-3,9.21,25.44,25.44,0,0,1-6.31,6.72,19.35,19.35,0,0,1,2.12,2.54,9.08,9.08,0,0,1,1.85,5.74,9.39,9.39,0,0,1-2,6,12.54,12.54,0,0,1-5,3.81,15.71,15.71,0,0,1-6.21,1.31,10.44,10.44,0,0,1-7-2.32,9.12,9.12,0,0,1-3.07-6.53l-1.76-23.71c-.34-3.61-.51-5.82-.51-6.61a7.07,7.07,0,0,1,1.23-4.14,9.6,9.6,0,0,1,3.15-2.89,16.79,16.79,0,0,1,4-1.65,25.92,25.92,0,0,1,4.08-.75A34.37,34.37,0,0,1,411.66,239.31Zm-3.87,34.6-.16,3.78c0,.68.09,1.05.2,1.14a1.62,1.62,0,0,0,.78.12,3.22,3.22,0,0,0,2.23-.7,2.17,2.17,0,0,0,.79-1.66,2,2,0,0,0-.68-1.37,5.42,5.42,0,0,0-2.47-1.12A4.54,4.54,0,0,1,407.79,273.91Zm.5-10.64a28.08,28.08,0,0,0,3.09-2.55,19.9,19.9,0,0,0,3.43-4.22,8.94,8.94,0,0,0,1.38-4.66,4.9,4.9,0,0,0-.53-2.61,2.89,2.89,0,0,0-1.34-1.15,5.29,5.29,0,0,0-2-.33,8,8,0,0,0-1.87.19,2.27,2.27,0,0,0-1.2.61,2.75,2.75,0,0,0-.39,1.75Z" transform="translate(-46.5 -40.93)"/><path class="cls-2" d="M447.69,274.89l-.44,8.72a5.18,5.18,0,0,1-1.18,2.88,4.44,4.44,0,0,1-3.61,1.66,4.08,4.08,0,0,1-3.68-1.58,5.37,5.37,0,0,1-1-3L437,250.36c-.06-1.68-.09-2.8-.09-3.37a5.09,5.09,0,0,1,1.59-3.77,11.48,11.48,0,0,1,3.74-2.46,20.92,20.92,0,0,1,4.3-1.26,22.33,22.33,0,0,1,3.78-.38,20.13,20.13,0,0,1,8.11,1.53,11.51,11.51,0,0,1,5.34,4.45,13.11,13.11,0,0,1,1.82,7,18,18,0,0,1-1.49,7.29,19.41,19.41,0,0,1-4.22,6,16.84,16.84,0,0,1-4.33,3.33L461.7,277a14.39,14.39,0,0,1,1.34,2.1,5.69,5.69,0,0,1,.64,2.72,3.92,3.92,0,0,1-1.59,3.23,6.42,6.42,0,0,1-4.08,1.24,6.83,6.83,0,0,1-4.45-1.35,8.65,8.65,0,0,1-2.44-3Zm2-27.68-1.07,14.52q1-.63,1.92-1.35a13.68,13.68,0,0,0,3.34-3.66,8.86,8.86,0,0,0,1.32-4.81,5.21,5.21,0,0,0-1.07-3.61,3.54,3.54,0,0,0-2.77-1.18A12,12,0,0,0,449.73,247.21Z" transform="translate(-46.5 -40.93)"/><path class="cls-2" d="M490.86,288.24a10.46,10.46,0,0,1-6.72-2.11A15.34,15.34,0,0,1,480,281a29.65,29.65,0,0,1-2.37-6.49,56,56,0,0,1-1.26-7q-.42-3.59-.54-6.85c-.08-2.23-.13-4.19-.13-5.89,0-.92.06-2,.1-3.09a17.89,17.89,0,0,1,.47-3.43,8.18,8.18,0,0,1,1.75-3.34,5.28,5.28,0,0,1,4.3-1.6q7,.06,7,6.93c0,.77,0,1.58-.1,2.42-.19,3.27-.34,6.52-.47,9.73-.08,2.1-.13,4.21-.13,6.33a32,32,0,0,0,.32,4.47,19.15,19.15,0,0,0,.94,3.94,6.75,6.75,0,0,0,1.28,2.34,1.77,1.77,0,0,0,1.09.65,2.32,2.32,0,0,0,1.57-.85,8.18,8.18,0,0,0,1.54-2.85,23.93,23.93,0,0,0,1.12-4.47,46.33,46.33,0,0,0,.52-4.79c.08-1.54.13-2.87.13-4-.05-3.09-.18-6.24-.41-9.45-.19-2.43-.29-4.32-.29-5.67a8.11,8.11,0,0,1,.4-2.53,4.47,4.47,0,0,1,1.82-2.25,6.67,6.67,0,0,1,3.89-1,6.6,6.6,0,0,1,3.94,1,4.65,4.65,0,0,1,1.84,2.4,10,10,0,0,1,.39,2.81c0,1.54-.09,3.42-.28,5.64-.29,3.38-.59,6.53-.88,9.45q-.25,2.9-.66,6.09a46.13,46.13,0,0,1-1.29,6.33,23.4,23.4,0,0,1-2.55,5.86,13.91,13.91,0,0,1-4.66,4.55A14.21,14.21,0,0,1,490.86,288.24Z" transform="translate(-46.5 -40.93)"/><path class="cls-2" d="M534.2,248.81a13.18,13.18,0,0,0-2.26,4.06,29.9,29.9,0,0,0-1.63,6.42,49.06,49.06,0,0,0-.55,7.41,29.18,29.18,0,0,0,1.3,9.72q1.31,3.57,4.77,3.57,2.86,0,3.88-4.78l-3.15-.22a3.77,3.77,0,0,1-3-1.67,7.33,7.33,0,0,1-.74-3.5,5,5,0,0,1,.94-3,3.57,3.57,0,0,1,3.12-1.32A26.69,26.69,0,0,1,547,269.65a4.62,4.62,0,0,1,1.68,3.79,10.11,10.11,0,0,1-.19,1.86l-.44,2.52q-2.46,10.4-13.76,10.39a16.58,16.58,0,0,1-8.31-1.95,14.94,14.94,0,0,1-5.38-5,21.05,21.05,0,0,1-2.79-6.82,34.88,34.88,0,0,1-.84-7.7,39.44,39.44,0,0,1,1.12-9.24,32,32,0,0,1,3.36-8.5,20.24,20.24,0,0,1,5.87-6.48,14.25,14.25,0,0,1,8.55-2.6,10.81,10.81,0,0,1,6.47,1.84,12.76,12.76,0,0,1,3.92,4.42,20.43,20.43,0,0,1,1.92,5.39,27.58,27.58,0,0,1,.56,5.35,6.35,6.35,0,0,1-.77,3.18,5.8,5.8,0,0,1-2.23,2.22,6.27,6.27,0,0,1-3.17.84,5.46,5.46,0,0,1-3.84-1.25,5.59,5.59,0,0,1-1.73-2.71,11.86,11.86,0,0,1-.38-3,24.43,24.43,0,0,1,.24-3.26,26.52,26.52,0,0,0,.23-3.54c0-1.24-.3-1.86-.85-1.86A3.1,3.1,0,0,0,534.2,248.81Z" transform="translate(-46.5 -40.93)"/><path class="cls-3" d="M300.62,100.32c-68,9.39-112.65,41.29-131.76,57.77a1,1,0,0,0,1.18,1.57c25.13-16.26,89.33-49,181.58-33.84,87.18,14.31,131.2,78.2,140.14,93a6.6,6.6,0,0,0,5.65,3.2h41.08a6.61,6.61,0,0,0,5.77-9.81C525.77,178.81,467.42,103.15,353.51,98c-2.54-.11-5-.14-7.5-.19l-6.84-.08c-3.32,0-6.62,0-9.85.16C329.32,97.84,310.55,98.77,300.62,100.32Z" transform="translate(-46.5 -40.93)"/><path class="cls-4" d="M105,120.23a1.62,1.62,0,0,0-.18.2v0" transform="translate(-46.5 -40.93)"/><path class="cls-4" d="M105.19,120.05l0,0-.2.16" transform="translate(-46.5 -40.93)"/><path class="cls-1" d="M463.63,119.47a1,1,0,0,0,1.11-1.62c-29.34-23.07-113.44-77.2-229.45-50C114.4,96.18,65.73,183.84,52.73,212.71a6.6,6.6,0,0,0,6,9.32h41a6.62,6.62,0,0,0,5.92-3.68c9.19-18.47,55.91-101.38,164.8-126.21C365.2,70.55,436.13,103.34,463.63,119.47Z" transform="translate(-46.5 -40.93)"/><path class="cls-3" d="M112.08,324h-5.69a2.38,2.38,0,0,1-1.77-.56,2.49,2.49,0,0,1-.52-1.76v-14a2.43,2.43,0,0,1,.54-1.77,2.4,2.4,0,0,1,1.75-.54h6a14.09,14.09,0,0,1,2.31.16,5,5,0,0,1,1.76.64,4.64,4.64,0,0,1,1.17,1,4.24,4.24,0,0,1,.77,1.33,4.47,4.47,0,0,1,.27,1.55,4.29,4.29,0,0,1-2.8,4.1c2.45.78,3.68,2.29,3.68,4.55a5.18,5.18,0,0,1-.8,2.82,4.91,4.91,0,0,1-2.16,1.85,7.8,7.8,0,0,1-2,.5A19.55,19.55,0,0,1,112.08,324Zm-4.21-15.81V313h3.46a7,7,0,0,0,2.19-.27,2.09,2.09,0,0,0,1.17-1,2.28,2.28,0,0,0,.32-1.19,1.86,1.86,0,0,0-1-1.88,7.66,7.66,0,0,0-3.06-.46Zm3.93,7.53h-3.93v5.44h4.06q3.82,0,3.83-2.76a2.26,2.26,0,0,0-1-2.05A5.61,5.61,0,0,0,111.8,315.69Z" transform="translate(-46.5 -40.93)"/><path class="cls-3" d="M133.8,321.86l-.89-2.35h-7.58l-.89,2.4a8.93,8.93,0,0,1-.89,1.89,1.44,1.44,0,0,1-1.21.48,1.75,1.75,0,0,1-1.26-.52,1.57,1.57,0,0,1-.55-1.18,2.51,2.51,0,0,1,.13-.79c.08-.27.22-.65.42-1.13l4.77-12.11c.13-.35.3-.77.49-1.25a6,6,0,0,1,.61-1.22,2.46,2.46,0,0,1,.85-.78,2.6,2.6,0,0,1,1.3-.3,2.63,2.63,0,0,1,1.32.3,2.53,2.53,0,0,1,.85.77,5.18,5.18,0,0,1,.55,1q.23.54.57,1.44l4.87,12a6,6,0,0,1,.57,2,1.64,1.64,0,0,1-.54,1.19,1.9,1.9,0,0,1-2.07.39,1.51,1.51,0,0,1-.53-.44,3.79,3.79,0,0,1-.47-.84Zm-7.48-5.18h5.57l-2.81-7.7Z" transform="translate(-46.5 -40.93)"/><path class="cls-3" d="M154.77,318.37a5.48,5.48,0,0,1-.87,3,5.78,5.78,0,0,1-2.55,2.11,9.52,9.52,0,0,1-4,.76,8.88,8.88,0,0,1-4.55-1,6.09,6.09,0,0,1-2.07-2,4.58,4.58,0,0,1-.8-2.44,1.59,1.59,0,0,1,.48-1.17,1.61,1.61,0,0,1,1.22-.49,1.41,1.41,0,0,1,1,.38,3,3,0,0,1,.7,1.13,8.22,8.22,0,0,0,.77,1.49,3.07,3.07,0,0,0,1.17,1,4.26,4.26,0,0,0,2,.39,4.46,4.46,0,0,0,2.73-.78,2.35,2.35,0,0,0,1.05-2,2.07,2.07,0,0,0-.57-1.51,3.55,3.55,0,0,0-1.46-.88,23.85,23.85,0,0,0-2.4-.65,17.89,17.89,0,0,1-3.36-1.1,5.44,5.44,0,0,1-2.15-1.72,4.48,4.48,0,0,1-.8-2.7,4.65,4.65,0,0,1,.84-2.74,5.29,5.29,0,0,1,2.43-1.84,9.93,9.93,0,0,1,3.74-.64,9.12,9.12,0,0,1,3,.43,6.16,6.16,0,0,1,2.08,1.13,4.79,4.79,0,0,1,1.21,1.48,3.48,3.48,0,0,1,.38,1.51,1.79,1.79,0,0,1-.48,1.22,1.52,1.52,0,0,1-1.19.54,1.38,1.38,0,0,1-1-.32,4.14,4.14,0,0,1-.73-1.07,4.85,4.85,0,0,0-1.22-1.64,3.55,3.55,0,0,0-2.29-.6,3.93,3.93,0,0,0-2.36.65,1.86,1.86,0,0,0-.9,1.54,1.58,1.58,0,0,0,.3,1,2.8,2.8,0,0,0,.84.7A6,6,0,0,0,146,312q.54.17,1.8.48c1,.25,2,.52,2.86.81a8.63,8.63,0,0,1,2.17,1.09,4.39,4.39,0,0,1,1.4,1.6A5.12,5.12,0,0,1,154.77,318.37Z" transform="translate(-46.5 -40.93)"/><path class="cls-3" d="M158.13,322V307.29a2.53,2.53,0,0,1,.52-1.72A1.75,1.75,0,0,1,160,305a1.79,1.79,0,0,1,1.38.57,2.44,2.44,0,0,1,.53,1.72V322a2.49,2.49,0,0,1-.53,1.73,1.79,1.79,0,0,1-1.38.57,1.75,1.75,0,0,1-1.34-.57A2.5,2.5,0,0,1,158.13,322Z" transform="translate(-46.5 -40.93)"/><path class="cls-3" d="M180.3,318.37a5.48,5.48,0,0,1-.87,3,5.78,5.78,0,0,1-2.55,2.11,9.52,9.52,0,0,1-4,.76,8.88,8.88,0,0,1-4.55-1,6.09,6.09,0,0,1-2.07-2,4.58,4.58,0,0,1-.8-2.44,1.59,1.59,0,0,1,.48-1.17,1.61,1.61,0,0,1,1.22-.49,1.41,1.41,0,0,1,1,.38,3,3,0,0,1,.7,1.13,8.22,8.22,0,0,0,.77,1.49,3.07,3.07,0,0,0,1.17,1,4.26,4.26,0,0,0,2,.39,4.46,4.46,0,0,0,2.73-.78,2.35,2.35,0,0,0,1.05-2,2.07,2.07,0,0,0-.57-1.51,3.55,3.55,0,0,0-1.46-.88,23.85,23.85,0,0,0-2.4-.65,17.89,17.89,0,0,1-3.36-1.1,5.44,5.44,0,0,1-2.15-1.72,4.48,4.48,0,0,1-.8-2.7,4.65,4.65,0,0,1,.84-2.74,5.29,5.29,0,0,1,2.43-1.84,9.93,9.93,0,0,1,3.74-.64,9.12,9.12,0,0,1,3,.43,6.16,6.16,0,0,1,2.08,1.13,4.79,4.79,0,0,1,1.21,1.48,3.48,3.48,0,0,1,.38,1.51,1.79,1.79,0,0,1-.48,1.22,1.52,1.52,0,0,1-1.19.54,1.38,1.38,0,0,1-1-.32,4.14,4.14,0,0,1-.73-1.07,4.85,4.85,0,0,0-1.22-1.64,3.55,3.55,0,0,0-2.29-.6,3.93,3.93,0,0,0-2.36.65,1.86,1.86,0,0,0-.9,1.54,1.58,1.58,0,0,0,.3,1,2.8,2.8,0,0,0,.84.7,6,6,0,0,0,1.09.46q.54.17,1.8.48c1,.25,2,.52,2.86.81a8.63,8.63,0,0,1,2.17,1.09,4.39,4.39,0,0,1,1.4,1.6A5.12,5.12,0,0,1,180.3,318.37Z" transform="translate(-46.5 -40.93)"/><path class="cls-3" d="M197.68,318.37a5.48,5.48,0,0,1-.87,3,5.78,5.78,0,0,1-2.55,2.11,9.55,9.55,0,0,1-4,.76,9,9,0,0,1-4.56-1,6.15,6.15,0,0,1-2.06-2,4.58,4.58,0,0,1-.8-2.44,1.66,1.66,0,0,1,1.69-1.66,1.4,1.4,0,0,1,1,.38,3,3,0,0,1,.71,1.13,7.63,7.63,0,0,0,.77,1.49,3,3,0,0,0,1.16,1,4.3,4.3,0,0,0,2,.39,4.45,4.45,0,0,0,2.72-.78,2.35,2.35,0,0,0,1-2,2.1,2.1,0,0,0-.56-1.51,3.59,3.59,0,0,0-1.47-.88,22.83,22.83,0,0,0-2.39-.65,18.26,18.26,0,0,1-3.37-1.1,5.51,5.51,0,0,1-2.15-1.72,4.47,4.47,0,0,1-.79-2.7,4.65,4.65,0,0,1,.84-2.74,5.29,5.29,0,0,1,2.43-1.84,9.89,9.89,0,0,1,3.74-.64,9.12,9.12,0,0,1,3,.43,6.36,6.36,0,0,1,2.08,1.13,4.61,4.61,0,0,1,1.2,1.48,3.36,3.36,0,0,1,.39,1.51,1.79,1.79,0,0,1-.48,1.22,1.53,1.53,0,0,1-1.19.54,1.42,1.42,0,0,1-1-.32,4.72,4.72,0,0,1-.73-1.07,4.72,4.72,0,0,0-1.22-1.64,3.53,3.53,0,0,0-2.29-.6,4,4,0,0,0-2.36.65,1.85,1.85,0,0,0-.89,1.54,1.58,1.58,0,0,0,.3,1,2.57,2.57,0,0,0,.84.7,6.25,6.25,0,0,0,1.08.46c.37.11,1,.27,1.81.48q1.58.38,2.85.81a8.53,8.53,0,0,1,2.18,1.09,4.49,4.49,0,0,1,1.4,1.6A5.25,5.25,0,0,1,197.68,318.37Z" transform="translate(-46.5 -40.93)"/><path class="cls-3" d="M216.77,318.08a4.82,4.82,0,0,1-.44,1.92,7.05,7.05,0,0,1-3.78,3.66,8.54,8.54,0,0,1-3.41.62,12.28,12.28,0,0,1-2.68-.27,7.28,7.28,0,0,1-4-2.43,9.46,9.46,0,0,1-1.26-2,9.9,9.9,0,0,1-.78-2.32,12.93,12.93,0,0,1-.26-2.62,11.75,11.75,0,0,1,.65-4,8.67,8.67,0,0,1,1.88-3.05,8.22,8.22,0,0,1,2.86-1.93A9.31,9.31,0,0,1,209,305a8.76,8.76,0,0,1,4,.9,7.36,7.36,0,0,1,2.71,2.24,4.36,4.36,0,0,1,.94,2.51,1.61,1.61,0,0,1-.46,1.14,1.44,1.44,0,0,1-1.1.5,1.52,1.52,0,0,1-1.09-.34,5,5,0,0,1-.81-1.19,5.76,5.76,0,0,0-1.73-2.07,4.24,4.24,0,0,0-2.46-.69,4.45,4.45,0,0,0-3.71,1.77,8,8,0,0,0-1.38,5,9.22,9.22,0,0,0,.61,3.61,4.46,4.46,0,0,0,1.73,2.16,4.72,4.72,0,0,0,2.62.71,4.65,4.65,0,0,0,2.75-.8,4.87,4.87,0,0,0,1.7-2.38,4,4,0,0,1,.6-1.2,1.35,1.35,0,0,1,1.14-.46,1.58,1.58,0,0,1,1.16.47A1.56,1.56,0,0,1,216.77,318.08Z" transform="translate(-46.5 -40.93)"/><path class="cls-3" d="M224,307.29v5.34h8.16v-5.34a2.52,2.52,0,0,1,.51-1.72A1.76,1.76,0,0,1,234,305a1.79,1.79,0,0,1,1.38.57,2.44,2.44,0,0,1,.53,1.72V322a2.44,2.44,0,0,1-.54,1.73,1.8,1.8,0,0,1-1.37.57,1.73,1.73,0,0,1-1.36-.57,2.55,2.55,0,0,1-.51-1.73v-6.27H224V322a2.44,2.44,0,0,1-.53,1.73,1.8,1.8,0,0,1-1.37.57,1.75,1.75,0,0,1-1.37-.57,2.61,2.61,0,0,1-.5-1.73V307.29a2.52,2.52,0,0,1,.5-1.72,1.72,1.72,0,0,1,1.37-.57,1.82,1.82,0,0,1,1.38.57A2.44,2.44,0,0,1,224,307.29Z" transform="translate(-46.5 -40.93)"/><path class="cls-3" d="M248.17,305a9.92,9.92,0,0,1,5,1.18,7.71,7.71,0,0,1,3.15,3.34,11.47,11.47,0,0,1,1.06,5.1,12.48,12.48,0,0,1-.58,3.93,8.44,8.44,0,0,1-1.76,3.06,7.6,7.6,0,0,1-2.87,2,11.42,11.42,0,0,1-7.82,0,7.78,7.78,0,0,1-2.89-2,8.53,8.53,0,0,1-1.75-3.09,12.66,12.66,0,0,1-.59-3.91,11.8,11.8,0,0,1,.62-3.94,8.39,8.39,0,0,1,1.78-3,7.66,7.66,0,0,1,2.85-1.93A10.17,10.17,0,0,1,248.17,305Zm5.37,9.59a8.62,8.62,0,0,0-.67-3.55,5,5,0,0,0-1.88-2.27,5.23,5.23,0,0,0-2.82-.77,5,5,0,0,0-2.09.43,4.59,4.59,0,0,0-1.66,1.24,5.85,5.85,0,0,0-1.09,2.08,9.28,9.28,0,0,0-.4,2.84,9.59,9.59,0,0,0,.4,2.88,5.85,5.85,0,0,0,1.13,2.13,4.83,4.83,0,0,0,1.68,1.26,5.05,5.05,0,0,0,2.08.42,4.9,4.9,0,0,0,4.6-3A8.64,8.64,0,0,0,253.54,314.59Z" transform="translate(-46.5 -40.93)"/><path class="cls-3" d="M268.8,305a9.92,9.92,0,0,1,5,1.18,7.59,7.59,0,0,1,3.15,3.34,11.47,11.47,0,0,1,1.07,5.1,12.47,12.47,0,0,1-.59,3.93,8.42,8.42,0,0,1-1.75,3.06,7.64,7.64,0,0,1-2.88,2,11.42,11.42,0,0,1-7.82,0,7.86,7.86,0,0,1-2.89-2,8.67,8.67,0,0,1-1.75-3.09,12.66,12.66,0,0,1-.59-3.91,12.06,12.06,0,0,1,.62-3.94,8.27,8.27,0,0,1,1.79-3,7.71,7.71,0,0,1,2.84-1.93A10.2,10.2,0,0,1,268.8,305Zm5.37,9.59a8.79,8.79,0,0,0-.66-3.55,5,5,0,0,0-1.89-2.27,5.23,5.23,0,0,0-2.82-.77,5,5,0,0,0-2.09.43,4.67,4.67,0,0,0-1.66,1.24,6,6,0,0,0-1.09,2.08,9.28,9.28,0,0,0-.4,2.84,9.59,9.59,0,0,0,.4,2.88,6.17,6.17,0,0,0,1.13,2.13,4.83,4.83,0,0,0,1.68,1.26,5.09,5.09,0,0,0,2.08.42,5.14,5.14,0,0,0,2.67-.72,5,5,0,0,0,1.93-2.24A8.64,8.64,0,0,0,274.17,314.59Z" transform="translate(-46.5 -40.93)"/><path class="cls-3" d="M284.93,307.29v13.57h7.66a2,2,0,0,1,1.4.45,1.44,1.44,0,0,1,.49,1.12,1.4,1.4,0,0,1-.48,1.11,2.08,2.08,0,0,1-1.41.43h-9.12a2,2,0,0,1-2.32-2.32V307.29a2.47,2.47,0,0,1,.52-1.72A1.72,1.72,0,0,1,283,305a1.79,1.79,0,0,1,1.38.57A2.44,2.44,0,0,1,284.93,307.29Z" transform="translate(-46.5 -40.93)"/><path class="cls-1" d="M176.08,67.17c-1.6-4.64,3.78-14.39,6.24-18.48a1.72,1.72,0,0,0-1-2.53l-2.63-.82a1.73,1.73,0,0,0-2.18,1.19c-1.61,5.87-4.7,15.3-20.37,16.29A2.62,2.62,0,0,0,153.85,64l-5.31,7a2.5,2.5,0,0,1-2.29,1l-13.15-.31a2.11,2.11,0,0,0-2.11.78c-4.58,7.53-14,10.1-30.12,2.87a1.7,1.7,0,0,0-2.31,1.07l-1,3.1a1.73,1.73,0,0,0,1.29,2.2c13.72,2.93,23,4,23.94,13.9,1.14,11.53-3.08,31.78-3.08,31.78l11.87-10.48s-8.14-28.72,17.3-12.37h0l12-8s-21.48-4.91-24.42-13.4,14.32-3.44,15.3-3.44c.21-.43,9.87-19.44,13.92-5.59,2.28,7.8-4.23,22.09-4.23,22.09L170,91.77s-.5-24.24,18.69-8.87h0l11.18-4.42S178.15,73.13,176.08,67.17Z" transform="translate(-46.5 -40.93)"/><path class="cls-1" d="M176.35,57.46" transform="translate(-46.5 -40.93)"/><path class="cls-1" d="M156.54,61.37" transform="translate(-46.5 -40.93)"/><circle class="cls-1" cx="72.49" cy="27.4" r="9.34"/><circle class="cls-1" cx="114.59" cy="9.34" r="9.34"/><path class="cls-1" d="M315.87,305.32a9.92,9.92,0,0,1,5,1.17,7.55,7.55,0,0,1,3.14,3.33A11.38,11.38,0,0,1,325,314.9a12.41,12.41,0,0,1-.59,3.92,8.32,8.32,0,0,1-1.75,3.05,7.65,7.65,0,0,1-2.86,2,11.37,11.37,0,0,1-7.8,0,7.68,7.68,0,0,1-2.87-2,8.63,8.63,0,0,1-1.75-3.08,12.53,12.53,0,0,1-.59-3.89,12,12,0,0,1,.62-3.93,8.39,8.39,0,0,1,1.78-3.05,7.85,7.85,0,0,1,2.84-1.92A10.26,10.26,0,0,1,315.87,305.32Zm5.35,9.56a8.7,8.7,0,0,0-.66-3.54,4.92,4.92,0,0,0-1.88-2.26,5.45,5.45,0,0,0-4.89-.35,4.67,4.67,0,0,0-1.65,1.24,5.8,5.8,0,0,0-1.09,2.07,9.28,9.28,0,0,0-.4,2.84,9.46,9.46,0,0,0,.4,2.86,5.72,5.72,0,0,0,1.13,2.12,4.48,4.48,0,0,0,1.67,1.26,5,5,0,0,0,2.07.42,5.11,5.11,0,0,0,2.66-.72,5,5,0,0,0,1.93-2.23A8.74,8.74,0,0,0,321.22,314.88Z" transform="translate(-46.5 -40.93)"/><path class="cls-1" d="M328.28,316.54V307.6a2.45,2.45,0,0,1,.52-1.71,1.72,1.72,0,0,1,1.34-.57,1.77,1.77,0,0,1,1.39.57,2.5,2.5,0,0,1,.52,1.71v9.14a8.05,8.05,0,0,0,.35,2.6,3,3,0,0,0,1.23,1.63,4.59,4.59,0,0,0,2.49.57,3.7,3.7,0,0,0,3.11-1.17,5.74,5.74,0,0,0,.92-3.56V307.6a2.56,2.56,0,0,1,.5-1.72,1.76,1.76,0,0,1,1.36-.56,1.79,1.79,0,0,1,1.37.56,2.41,2.41,0,0,1,.53,1.72v8.94a13.31,13.31,0,0,1-.42,3.63,5.58,5.58,0,0,1-1.61,2.56,6,6,0,0,1-2.35,1.37,10.3,10.3,0,0,1-3.15.43,12.91,12.91,0,0,1-3.69-.46,5.87,5.87,0,0,1-2.52-1.43,5.78,5.78,0,0,1-1.43-2.49A12.38,12.38,0,0,1,328.28,316.54Z" transform="translate(-46.5 -40.93)"/><path class="cls-1" d="M350.31,305.63h4.91a13,13,0,0,1,3.28.36,6.16,6.16,0,0,1,2.49,1.33q2.89,2.49,2.9,7.56a15.12,15.12,0,0,1-.29,3.05,9.41,9.41,0,0,1-.9,2.49,7.84,7.84,0,0,1-1.56,2,6.47,6.47,0,0,1-1.64,1.08,7.35,7.35,0,0,1-1.9.57,14.62,14.62,0,0,1-2.31.17h-4.9a3.16,3.16,0,0,1-1.55-.31,1.5,1.5,0,0,1-.68-.88,5.79,5.79,0,0,1-.15-1.46V307.94a2,2,0,0,1,2.3-2.31Zm1.46,3v12.62h2.85c.63,0,1.12,0,1.47-.05a4.68,4.68,0,0,0,1.11-.26,2.72,2.72,0,0,0,1-.57c1.26-1.06,1.89-2.9,1.89-5.5a8,8,0,0,0-.83-4.12,3.68,3.68,0,0,0-2-1.74,10.16,10.16,0,0,0-2.95-.38Z" transform="translate(-46.5 -40.93)"/><path class="cls-1" d="M379.44,308.54H371v4.56h7.81a1.86,1.86,0,0,1,1.29.39,1.3,1.3,0,0,1,.42,1,1.35,1.35,0,0,1-.42,1,1.8,1.8,0,0,1-1.29.4H371v5.29h8.77a1.9,1.9,0,0,1,1.34.41,1.53,1.53,0,0,1,0,2.17,2,2,0,0,1-1.34.41H369.5a2.35,2.35,0,0,1-1.76-.55,2.42,2.42,0,0,1-.54-1.76v-14a3.12,3.12,0,0,1,.24-1.32,1.52,1.52,0,0,1,.75-.75,3.1,3.1,0,0,1,1.31-.24h9.94a2,2,0,0,1,1.34.4,1.48,1.48,0,0,1,0,2.11A2,2,0,0,1,379.44,308.54Z" transform="translate(-46.5 -40.93)"/><path class="cls-1" d="M389.42,307.57l7.24,11V307.47a2.4,2.4,0,0,1,.46-1.61,1.56,1.56,0,0,1,1.25-.54,1.6,1.6,0,0,1,1.28.54,2.4,2.4,0,0,1,.47,1.61v14.62c0,1.63-.68,2.44-2,2.44a2.6,2.6,0,0,1-.91-.14,2.31,2.31,0,0,1-.76-.46,4.3,4.3,0,0,1-.66-.74l-.61-.87-7.06-10.83v10.89a2.32,2.32,0,0,1-.5,1.61,1.76,1.76,0,0,1-2.55,0,2.35,2.35,0,0,1-.48-1.6V308a3.92,3.92,0,0,1,.21-1.43,2,2,0,0,1,.79-.93,2.22,2.22,0,0,1,1.21-.36,2.08,2.08,0,0,1,.87.16,2,2,0,0,1,.63.45,4.2,4.2,0,0,1,.56.72Z" transform="translate(-46.5 -40.93)"/><path class="cls-1" d="M415.78,322.11l-.88-2.33h-7.56l-.89,2.38a8.55,8.55,0,0,1-.88,1.89,1.44,1.44,0,0,1-1.21.48,1.74,1.74,0,0,1-1.25-.52,1.6,1.6,0,0,1-.55-1.17,2.78,2.78,0,0,1,.13-.79c.08-.27.22-.65.42-1.13l4.75-12.07c.14-.34.3-.76.49-1.24a5.91,5.91,0,0,1,.61-1.21,2.28,2.28,0,0,1,.85-.78,2.58,2.58,0,0,1,1.3-.3,2.62,2.62,0,0,1,1.31.3,2.49,2.49,0,0,1,.85.76,5.14,5.14,0,0,1,.54,1q.22.54.57,1.44l4.85,12a6,6,0,0,1,.57,2,1.66,1.66,0,0,1-.54,1.19,1.78,1.78,0,0,1-1.3.53,1.81,1.81,0,0,1-.76-.15,1.7,1.7,0,0,1-.53-.43,4.37,4.37,0,0,1-.46-.84C416,322.73,415.9,322.4,415.78,322.11ZM408.33,317h5.55l-2.8-7.66Z" transform="translate(-46.5 -40.93)"/><path class="cls-1" d="M434.46,322.11l-.89-2.33H426l-.88,2.38a8.93,8.93,0,0,1-.89,1.89,1.43,1.43,0,0,1-1.2.48,1.75,1.75,0,0,1-1.26-.52,1.58,1.58,0,0,1-.54-1.17,2.76,2.76,0,0,1,.12-.79c.09-.27.23-.65.42-1.13l4.75-12.07c.14-.34.3-.76.49-1.24a6.46,6.46,0,0,1,.61-1.21,2.36,2.36,0,0,1,.85-.78,2.58,2.58,0,0,1,1.3-.3,2.62,2.62,0,0,1,1.31.3,2.4,2.4,0,0,1,.85.76,5.18,5.18,0,0,1,.55,1l.56,1.44,4.85,12a6,6,0,0,1,.57,2,1.69,1.69,0,0,1-.53,1.19,1.81,1.81,0,0,1-1.3.53,1.55,1.55,0,0,1-1.3-.58,5,5,0,0,1-.46-.84C434.72,322.73,434.57,322.4,434.46,322.11ZM427,317h5.55l-2.8-7.66Z" transform="translate(-46.5 -40.93)"/><path class="cls-1" d="M446.3,316.27H445v6a2.53,2.53,0,0,1-.52,1.74,1.78,1.78,0,0,1-1.36.55,1.71,1.71,0,0,1-1.39-.58,2.58,2.58,0,0,1-.5-1.71v-14.3a2.38,2.38,0,0,1,.55-1.76,2.42,2.42,0,0,1,1.76-.55h6.12a18.94,18.94,0,0,1,2.17.11,5.36,5.36,0,0,1,1.62.44,4.83,4.83,0,0,1,1.55,1.05,4.61,4.61,0,0,1,1,1.59,5.4,5.4,0,0,1,.35,1.92,4.59,4.59,0,0,1-1.18,3.32,6.72,6.72,0,0,1-3.55,1.77,6.68,6.68,0,0,1,1.91,1.57,15.93,15.93,0,0,1,1.63,2.21,16.51,16.51,0,0,1,1.12,2.12,4.35,4.35,0,0,1,.4,1.3,1.29,1.29,0,0,1-.24.72,1.56,1.56,0,0,1-.64.58,2.13,2.13,0,0,1-.94.2,1.81,1.81,0,0,1-1.06-.29,2.82,2.82,0,0,1-.74-.76c-.21-.3-.49-.75-.84-1.34l-1.51-2.51a14.9,14.9,0,0,0-1.45-2.11,3.51,3.51,0,0,0-1.3-1A4.44,4.44,0,0,0,446.3,316.27Zm2.15-7.81H445v5.11h3.37a9.27,9.27,0,0,0,2.28-.24,2.62,2.62,0,0,0,1.41-.79,2.3,2.3,0,0,0,.49-1.56,2.41,2.41,0,0,0-.39-1.36,2.38,2.38,0,0,0-1.09-.88A7.75,7.75,0,0,0,448.45,308.46Z" transform="translate(-46.5 -40.93)"/><path class="cls-1" d="M462.24,305.63h4.91a13,13,0,0,1,3.28.36,6.16,6.16,0,0,1,2.49,1.33q2.9,2.49,2.9,7.56a15.12,15.12,0,0,1-.29,3.05,9.41,9.41,0,0,1-.9,2.49,7.84,7.84,0,0,1-1.56,2,6.47,6.47,0,0,1-1.64,1.08,7.35,7.35,0,0,1-1.9.57,14.62,14.62,0,0,1-2.31.17h-4.9a3.16,3.16,0,0,1-1.55-.31,1.46,1.46,0,0,1-.68-.88,5.79,5.79,0,0,1-.15-1.46V307.94a2,2,0,0,1,2.3-2.31Zm1.46,3v12.62h2.85c.63,0,1.12,0,1.47-.05a4.8,4.8,0,0,0,1.11-.26,2.72,2.72,0,0,0,1-.57c1.26-1.06,1.89-2.9,1.89-5.5a8,8,0,0,0-.83-4.12,3.68,3.68,0,0,0-2-1.74,10.16,10.16,0,0,0-2.95-.38Z" transform="translate(-46.5 -40.93)"/><path class="cls-1" d="M491.37,308.54h-8.48v4.56h7.81a1.88,1.88,0,0,1,1.29.39,1.3,1.3,0,0,1,.42,1,1.35,1.35,0,0,1-.42,1,1.8,1.8,0,0,1-1.29.4h-7.81v5.29h8.77a1.9,1.9,0,0,1,1.34.41,1.53,1.53,0,0,1,0,2.17,2,2,0,0,1-1.34.41H481.43a2.35,2.35,0,0,1-1.76-.55,2.42,2.42,0,0,1-.54-1.76v-14a3.12,3.12,0,0,1,.24-1.32,1.52,1.52,0,0,1,.75-.75,3.1,3.1,0,0,1,1.31-.24h9.94a2,2,0,0,1,1.34.4,1.48,1.48,0,0,1,0,2.11A2,2,0,0,1,491.37,308.54Z" transform="translate(-46.5 -40.93)"/></svg>